<svg width="59" height="48" viewBox="0 0 59 48" fill="none" xmlns="http://www.w3.org/2000/svg">
    <path d="M14.0246 42.0822C13.9216 42.1863 13.7549 42.1863 13.6523 42.0822L12.7514 41.1723C12.6484 41.0682 12.6484 40.8998 12.7514 40.7961C12.8541 40.692 13.0208 40.692 13.1238 40.7961L14.0246 41.706C14.1276 41.81 14.1276 41.9785 14.0246 42.0822Z" fill="black"/>
    <path d="M4.30988 37.0657C4.55889 37.0657 4.76115 37.4231 4.76115 37.8636C4.76115 38.3042 4.55889 38.6616 4.30988 38.6616C4.06086 38.6616 3.85859 38.3042 3.85859 37.8636C3.85859 37.4227 4.06086 37.0657 4.30988 37.0657Z" fill="black"/>
    <path d="M2.31265 37.5031C2.39532 37.4275 2.50035 37.3765 2.61114 37.3587C2.62537 37.3569 2.63824 37.3545 2.65417 37.3539C2.67077 37.3525 2.68195 37.3521 2.69313 37.3518C2.72464 37.3518 2.75004 37.3528 2.77884 37.3569C2.8344 37.3641 2.88929 37.3795 2.94045 37.4028C3.04344 37.449 3.13221 37.5257 3.19319 37.6212C3.25486 37.7164 3.28806 37.8304 3.28806 37.944C3.28806 38.6924 3.28094 39.441 3.26535 40.1894L3.25181 40.7508L3.24774 40.8911C3.24672 40.9418 3.23927 40.9962 3.22368 41.0462C3.19319 41.1472 3.13322 41.2372 3.05428 41.3033C2.97568 41.3694 2.87845 41.4115 2.77817 41.4228C2.75411 41.4255 2.72565 41.4269 2.70397 41.4258C2.67788 41.4248 2.65383 41.4228 2.6291 41.418C2.58031 41.4094 2.53254 41.3937 2.48883 41.3711C2.40074 41.3266 2.32756 41.2564 2.27979 41.1725C2.23168 41.0886 2.20966 40.9921 2.21542 40.8983C2.22118 40.9921 2.25337 41.0821 2.30622 41.1554C2.35873 41.2287 2.43191 41.2855 2.51289 41.3177C2.5532 41.3341 2.59589 41.344 2.63858 41.3478C2.65958 41.3502 2.68228 41.3498 2.70227 41.3492C2.727 41.3481 2.74462 41.345 2.76631 41.3413C2.84965 41.3248 2.92656 41.2838 2.98619 41.2256C3.04615 41.1677 3.0885 41.0927 3.10714 41.0133C3.11662 40.9733 3.12001 40.9336 3.11832 40.8911L3.11425 40.7508L3.1007 40.1894C3.08545 39.4407 3.07834 38.6924 3.078 37.944C3.078 37.8704 3.057 37.7979 3.01736 37.7359C2.97806 37.6743 2.92114 37.624 2.85473 37.5935C2.82187 37.5781 2.78663 37.5678 2.75038 37.5623C2.7331 37.5596 2.7121 37.5586 2.69753 37.5586C2.68568 37.5586 2.67348 37.5589 2.66704 37.5596C2.65959 37.5599 2.64976 37.5613 2.64095 37.5623C2.56879 37.5726 2.49933 37.6044 2.44377 37.6534C2.38787 37.702 2.3462 37.7674 2.32519 37.8389C2.31469 37.8756 2.30961 37.9108 2.30927 37.9516L2.30724 38.0919L2.29741 38.6533C2.28928 39.0275 2.27945 39.4017 2.26658 39.7762L2.24422 40.3376C2.23609 40.5245 2.2266 40.7117 2.21508 40.8986C2.2039 40.7117 2.19408 40.5245 2.18594 40.3376L2.16359 39.7762C2.15037 39.402 2.14055 39.0278 2.13276 38.6533L2.12293 38.0919L2.1209 37.9516C2.11988 37.8988 2.12564 37.8403 2.14021 37.7869C2.16901 37.678 2.22965 37.5784 2.31265 37.5031Z" fill="black"/>
    <path d="M1.71534 37.661C1.71534 37.5973 1.77023 37.5457 1.83765 37.5457C1.90541 37.5457 1.9603 37.5973 1.9603 37.661V39.0447C1.9603 39.1084 1.90541 39.1601 1.83765 39.1601C1.76989 39.1601 1.71534 39.1084 1.71534 39.0447V37.661Z" fill="black"/>
    <path d="M0.785682 39.2358C0.853104 39.2492 0.90799 39.3019 0.90799 39.3532V40.475C0.90799 40.5267 0.853104 40.5541 0.785682 40.536C0.717921 40.5182 0.663374 40.462 0.663374 40.4114V39.3039C0.663035 39.2529 0.717921 39.2225 0.785682 39.2358Z" fill="black"/>
    <path d="M0.427902 40.6242C1.0662 41.1367 1.70349 41.6512 2.33941 42.1667L3.84402 42.1363L4.93835 42.1171C4.94343 40.4127 4.95698 38.7082 4.98002 37.0041C4.97494 36.9928 4.96952 36.9819 4.96376 36.9706C4.95088 36.9452 4.93699 36.9203 4.92175 36.8959C4.89159 36.8473 4.85771 36.8018 4.82045 36.7607C4.74591 36.6786 4.65918 36.6156 4.56364 36.5786C4.38238 36.5064 4.14928 36.5303 3.95041 36.6276C3.84945 36.6762 3.75323 36.7429 3.66514 36.8217C3.62109 36.861 3.57908 36.9035 3.53944 36.9483C3.51979 36.9706 3.50048 36.9935 3.48218 37.0168L3.45576 37.0517L3.43408 37.0829L3.35446 37.1958L3.23825 37.1664C2.53355 36.9873 1.82952 36.8059 1.12583 36.6217L0.568844 36.4752L0.545807 37.5169C0.530561 38.1526 0.511248 38.7887 0.487869 39.4244C0.453312 38.789 0.423161 38.1537 0.396734 37.518L0.349642 36.3315L0.344219 36.1921L0.48584 36.2209L1.18478 36.3633C1.85629 36.5009 2.52677 36.6413 3.19726 36.7833C3.21691 36.7566 3.23689 36.7303 3.25756 36.7049C3.30431 36.6478 3.35446 36.593 3.40833 36.5413C3.51539 36.4379 3.63702 36.3455 3.77389 36.2733C3.91009 36.201 4.06289 36.1504 4.22077 36.1312C4.37696 36.1113 4.54839 36.1237 4.70661 36.1798C4.87194 36.2377 5.0183 36.3393 5.13417 36.4602C5.19245 36.5204 5.24361 36.5858 5.28935 36.6543C5.31205 36.6885 5.33339 36.7238 5.35304 36.76C5.36287 36.7782 5.37269 36.7967 5.38184 36.8158L5.39573 36.8456L5.4025 36.8614L5.41064 36.8816L5.42419 36.9148L5.42487 36.9603C5.44926 38.7674 5.46349 40.5742 5.46823 42.3814L5.46891 42.6443L5.20803 42.6494L3.85419 42.6761L2.25437 42.7032L2.15748 42.7049L2.08328 42.6439C1.56526 42.2181 1.04825 41.7909 0.531916 41.3633L0.537676 41.6505C1.09433 42.2246 1.64962 42.8004 2.20321 43.3776L2.49865 43.6863C3.55977 43.7048 4.62123 43.7274 5.68235 43.7558C6.31151 43.7729 6.94066 43.7911 7.56981 43.813C8.19896 43.8339 8.82811 43.8585 9.45726 43.8876C8.82811 43.9167 8.19896 43.9414 7.56981 43.9626C7.34688 43.9701 7.12395 43.977 6.90068 43.9838C6.91762 44.0215 6.93456 44.0595 6.95252 44.0961C6.97962 44.1498 7.0074 44.2026 7.03823 44.2536C7.09854 44.3556 7.16697 44.4514 7.24287 44.5394C7.39397 44.716 7.57591 44.8612 7.77546 44.9772C7.97535 45.0936 8.19252 45.1816 8.41749 45.2504C8.52997 45.285 8.64482 45.3144 8.76103 45.3401C8.81897 45.3531 8.87758 45.3648 8.93653 45.3757C8.97617 45.3829 9.01581 45.3897 9.05579 45.3963C9.00937 45.2864 8.96736 45.1751 8.93077 45.0625C8.87927 44.9026 8.83658 44.7407 8.8044 44.5771C8.77153 44.4138 8.74951 44.2488 8.73765 44.0838C8.79796 44.2378 8.86064 44.3891 8.92636 44.5377C8.99277 44.6863 9.06256 44.8318 9.13845 44.9728C9.28922 45.2556 9.45997 45.5229 9.65411 45.7684C10.0407 46.2606 10.5221 46.6605 11.0628 46.9603C11.6039 47.2612 12.1999 47.4663 12.8168 47.6046C13.0902 47.6662 13.3684 47.7138 13.6496 47.7515C13.1576 47.6457 12.683 47.4653 12.2476 47.2181C11.6683 46.8902 11.1594 46.4427 10.7576 45.9231C10.3524 45.4004 10.0546 44.803 9.8811 44.1731C9.70662 43.5439 9.65648 42.8849 9.72695 42.2431C9.79776 41.6012 9.98918 40.9761 10.2894 40.4106C10.4384 40.1272 10.6166 39.8605 10.8159 39.612C11.0151 39.3631 11.239 39.1348 11.4823 38.93C11.2404 39.1365 11.0185 39.3665 10.8209 39.6164C10.6234 39.866 10.4537 40.1378 10.3104 40.4219C10.0251 40.9915 9.85739 41.6187 9.81809 42.2513C9.77777 42.8839 9.86552 43.5213 10.0718 44.1125C10.2775 44.7037 10.6031 45.248 11.012 45.705C11.4233 46.1661 11.919 46.5376 12.4638 46.7991C13.0075 47.0617 13.5984 47.2137 14.193 47.2513C14.7876 47.2886 15.3863 47.2113 15.947 47.0244C16.2278 46.9319 16.4985 46.8104 16.756 46.6653C17.0139 46.5208 17.2575 46.3507 17.4828 46.1583C17.9361 45.7762 18.3142 45.3062 18.5933 44.7804C18.7316 44.5168 18.8485 44.2409 18.9359 43.9547C19.0229 43.6685 19.086 43.3738 19.1188 43.0749C19.1852 42.4769 19.1398 41.8631 18.9789 41.2764C18.819 40.6896 18.5425 40.1306 18.1661 39.6428C17.7907 39.1546 17.3184 38.7373 16.7777 38.4292C16.2377 38.1215 15.6319 37.9226 15.0082 37.8524C14.3848 37.7812 13.7444 37.8391 13.1397 38.0236C12.8378 38.1167 12.5437 38.2382 12.2659 38.3912C11.9881 38.5442 11.7252 38.725 11.4819 38.9297C11.7238 38.7233 11.9854 38.5405 12.2625 38.3854C12.5393 38.2303 12.8304 38.0992 13.1322 38.0003C13.7353 37.8004 14.378 37.7182 15.016 37.7593C15.6539 37.8007 16.2875 37.965 16.8705 38.2481C17.4543 38.5299 17.9859 38.9311 18.4239 39.4237C18.862 39.9156 19.2093 40.4986 19.4282 41.1329C19.6477 41.7666 19.7405 42.4492 19.6961 43.1256C19.6531 43.8024 19.4729 44.4727 19.1669 45.0817C19.0135 45.3856 18.8319 45.6763 18.6201 45.9429C18.4087 46.21 18.1715 46.4561 17.9127 46.6759C17.6528 46.8943 17.3723 47.088 17.0752 47.2517C16.7781 47.415 16.4636 47.5457 16.1404 47.6453C15.6607 47.7919 15.1599 47.8641 14.6609 47.861C14.523 47.8966 14.3827 47.923 14.2418 47.9432C14.0788 47.9668 13.9149 47.9822 13.7502 47.9914C13.4205 48.0089 13.0885 47.999 12.7579 47.9613C12.0975 47.885 11.4379 47.696 10.8416 47.365C10.5441 47.2 10.2639 46.999 10.0132 46.7656C9.76252 46.5324 9.5423 46.2664 9.36037 45.9785C9.24585 45.7971 9.14659 45.6068 9.06256 45.4113C9.01954 45.4168 8.97651 45.4206 8.93348 45.4223C8.87283 45.425 8.81185 45.4247 8.75053 45.4226C8.62856 45.4178 8.50693 45.4034 8.38598 45.3805C8.14509 45.3339 7.90759 45.2511 7.69076 45.1255C7.47427 45.0002 7.28013 44.829 7.13716 44.6216C7.06567 44.5178 7.00672 44.4062 6.96302 44.2899C6.94099 44.2317 6.9227 44.1724 6.90813 44.1125C6.89797 44.0701 6.89017 44.0273 6.88374 43.9845C6.48328 43.9968 6.08282 44.0088 5.68235 44.0198C4.59243 44.0489 3.50217 44.0718 2.41192 44.0906L2.33196 44.092L2.26996 44.0311L1.9071 43.6764C1.31251 43.0941 0.719271 42.5098 0.127726 41.924L0.0609818 41.858L0.0572567 41.759L0.0216808 40.8283L0.000675201 40.2812L0.427902 40.6242Z" fill="black"/>
    <path d="M1.01131 37.3471C1.01131 37.2834 1.06619 37.2317 1.13395 37.2317C1.20171 37.2317 1.25626 37.2834 1.25626 37.3471V38.7307C1.25626 38.7944 1.20137 38.8461 1.13395 38.8461C1.06619 38.8461 1.01131 38.7944 1.01131 38.7307V37.3471Z" fill="black"/>
    <path d="M0.663048 37.1867C0.663048 37.123 0.717931 37.0713 0.785351 37.0713C0.85277 37.0713 0.907654 37.123 0.907654 37.1867V38.5703C0.907654 38.634 0.85277 38.6857 0.785351 38.6857C0.717593 38.6857 0.663048 38.634 0.663048 38.5703V37.1867Z" fill="black"/>
    <path d="M12.6731 40.3648C12.5241 40.4922 12.3872 40.6339 12.2652 40.7879C12.1436 40.942 12.0386 41.109 11.9505 41.2843C11.7747 41.6352 11.671 42.022 11.6462 42.4123C11.6212 42.8025 11.6767 43.1952 11.8021 43.5604C11.9281 43.9257 12.1287 44.2608 12.3814 44.5439C12.8863 45.1136 13.6086 45.4576 14.3438 45.4997C14.711 45.523 15.0807 45.4754 15.4273 45.36C15.6007 45.3029 15.7681 45.2279 15.927 45.1386C16.0862 45.0496 16.2366 44.9441 16.3759 44.8253C16.6557 44.5895 16.8892 44.2988 17.0616 43.974C17.2341 43.6491 17.3445 43.29 17.3855 42.9206C17.4265 42.5513 17.4001 42.172 17.2984 41.8101C17.1992 41.4483 17.0281 41.1029 16.796 40.803C16.5632 40.5011 16.2722 40.2443 15.9382 40.0547C15.6041 39.8664 15.2314 39.7428 14.8465 39.6997C14.462 39.6562 14.0673 39.6918 13.6946 39.8058C13.5086 39.8633 13.327 39.9383 13.1559 40.0324C12.9852 40.1272 12.8232 40.2388 12.6731 40.3648C12.9713 40.1105 13.3189 39.9153 13.6906 39.7921C14.0622 39.6689 14.4586 39.6185 14.8516 39.6442C15.2446 39.6699 15.636 39.7699 15.9944 39.9461C16.3535 40.1201 16.6818 40.3682 16.9502 40.6709C17.2205 40.9752 17.4336 41.3336 17.5678 41.7245C17.7009 42.1151 17.7599 42.5348 17.7321 42.9514C17.7053 43.368 17.5942 43.7805 17.4058 44.1554C17.2185 44.5309 16.9525 44.8661 16.6337 45.1365C16.4738 45.271 16.301 45.3902 16.1181 45.4908C15.9351 45.5915 15.7417 45.6719 15.5428 45.7335C15.1447 45.8554 14.7232 45.8941 14.3129 45.8482C13.9023 45.8027 13.5039 45.6716 13.1464 45.4713C12.7894 45.2697 12.4763 44.9951 12.2276 44.674C11.9786 44.3533 11.7946 43.9846 11.6869 43.5971C11.5775 43.2099 11.548 42.8032 11.5914 42.4078C11.6347 42.0121 11.7526 41.627 11.9373 41.2781C12.1226 40.9293 12.3733 40.6175 12.6731 40.3648Z" fill="black"/>
    <path d="M1.48935 39.6362C1.55711 39.6506 1.612 39.7053 1.612 39.7587V40.9216C1.612 40.9754 1.55711 41.0034 1.48935 40.9846C1.42159 40.9658 1.36671 40.9076 1.36671 40.8549V39.706C1.36705 39.6533 1.42193 39.6221 1.48935 39.6362Z" fill="black"/>
    <path d="M1.36705 37.5009C1.36705 37.4372 1.42194 37.3855 1.4897 37.3855C1.55746 37.3855 1.61235 37.4372 1.61235 37.5009V38.8845C1.61235 38.9482 1.55746 38.9999 1.4897 38.9999C1.42194 38.9999 1.36705 38.9482 1.36705 38.8845V37.5009Z" fill="black"/>
    <path d="M1.13395 39.436C1.20171 39.4497 1.25626 39.5034 1.25626 39.5562V40.6982C1.25626 40.7509 1.20137 40.7786 1.13395 40.7601C1.06619 40.7416 1.01131 40.6848 1.01131 40.6328V39.5052C1.01131 39.4528 1.06619 39.422 1.13395 39.436Z" fill="black"/>
    <path d="M1.83765 39.8461C1.90541 39.8608 1.9603 39.917 1.9603 39.9714V41.1548C1.9603 41.2093 1.90541 41.2377 1.83765 41.2185C1.76989 41.1993 1.71534 41.1401 1.71534 41.086V39.917C1.71534 39.8632 1.77023 39.8314 1.83765 39.8461Z" fill="black"/>
    <path d="M1.49885 31.8404C1.61438 31.8175 1.73364 31.8065 1.84815 31.8007C1.96063 31.7938 2.07346 31.7843 2.18526 31.7716C2.40921 31.7463 2.63146 31.7096 2.84965 31.6586C3.28466 31.5566 3.70918 31.3991 4.07034 31.1509C4.2499 31.027 4.41253 30.8805 4.54398 30.7104C4.61005 30.6258 4.66799 30.5351 4.71779 30.4403C4.72999 30.4163 4.74218 30.3924 4.75336 30.3684L4.78894 30.291L4.86042 30.1339C5.24123 29.2952 5.62679 28.4579 6.02183 27.625C6.21935 27.2087 6.41924 26.7931 6.62252 26.3793C6.7245 26.1725 6.82648 25.9657 6.93015 25.7596C7.03348 25.5536 7.13885 25.3482 7.24557 25.1438C7.16392 25.3598 7.08092 25.5751 6.99588 25.7898C6.91118 26.0044 6.82478 26.2184 6.73805 26.4323C6.56424 26.8595 6.38672 27.2854 6.20681 27.7099C5.84633 28.5589 5.47704 29.4034 5.09521 30.2431L5.02338 30.4006L4.98679 30.48C4.97358 30.5081 4.95969 30.5354 4.94546 30.5628C4.88753 30.6717 4.8201 30.7751 4.74387 30.8709C4.59175 31.0633 4.40643 31.2249 4.2062 31.357C4.00597 31.4892 3.79015 31.5926 3.56926 31.6744C3.34768 31.7558 3.12068 31.8157 2.89132 31.8596C2.66195 31.9027 2.43089 31.9294 2.19949 31.9427C2.08362 31.9493 1.96809 31.9523 1.85222 31.9523C1.73804 31.951 1.62895 31.9537 1.51884 31.9674C1.30099 31.9941 1.08246 32.0605 0.915773 32.2057C0.749422 32.3484 0.651172 32.5743 0.655577 32.8058C0.622713 32.5771 0.697248 32.3265 0.866309 32.1533C0.949315 32.066 1.0513 31.9985 1.15971 31.9482C1.26813 31.8972 1.38298 31.8633 1.49885 31.8404Z" fill="black"/>
    <path d="M13.4554 34.2629C13.2532 34.2629 13.0895 34.0975 13.0895 33.8931C13.0895 33.6891 13.2535 33.5234 13.4554 33.5234H14.6355C14.8378 33.5234 15.0014 33.6888 15.0014 33.8931C15.0014 34.0975 14.8378 34.2629 14.6355 34.2629H13.4554Z" fill="black"/>
    <path d="M0.926959 33.4959C0.992686 33.4856 1.05841 33.4781 1.1238 33.4719C1.25492 33.4606 1.38569 33.4569 1.51681 33.4596C1.64758 33.4623 1.77836 33.4709 1.9088 33.4873C1.97385 33.4955 2.03924 33.5058 2.10463 33.5185C2.13715 33.525 2.16968 33.5318 2.2022 33.54C2.23473 33.5479 2.26725 33.5572 2.29977 33.5678C2.26691 33.5774 2.23405 33.5852 2.20119 33.5917C2.16832 33.5986 2.13546 33.6044 2.10259 33.6099C2.03687 33.6201 1.97114 33.6277 1.90575 33.6338C1.77464 33.6451 1.64386 33.6489 1.51274 33.6465C1.38196 33.6441 1.25119 33.6352 1.12075 33.6191C1.05536 33.6106 0.990312 33.6006 0.924924 33.588C0.892399 33.5815 0.859874 33.5743 0.827349 33.5664C0.794824 33.5585 0.762299 33.5493 0.729774 33.5383C0.762638 33.5287 0.795503 33.5209 0.828367 33.514C0.86123 33.5068 0.894095 33.5014 0.926959 33.4959Z" fill="black"/>
    <path d="M14.1093 36.325L14.067 36.3308C14.005 36.34 13.9386 36.3527 13.8725 36.3678C13.6065 36.4273 13.3396 36.5177 13.0831 36.6289C12.8263 36.7405 12.5779 36.8741 12.3411 37.0267C11.8671 37.3324 11.4403 37.7148 11.0669 38.1523C10.6929 38.5898 10.372 39.0814 10.0976 39.6058C10.0109 39.7708 9.92853 39.9392 9.85061 40.1104L9.75439 40.3209L9.56466 40.309C9.14624 40.2823 8.72749 40.2514 8.30873 40.2141C8.00313 40.1861 7.69787 40.1566 7.39227 40.1214C7.08668 40.0875 6.78108 40.0471 6.47548 39.9995C6.78108 39.9523 7.08668 39.9119 7.39227 39.8776C7.69787 39.8424 8.00347 39.8129 8.30873 39.7849C8.65227 39.754 8.99548 39.728 9.33868 39.7048C9.38272 39.575 9.42982 39.446 9.4803 39.3179C9.7178 38.7216 10.0315 38.1465 10.432 37.6275C10.8314 37.1089 11.3186 36.6488 11.8763 36.2904C12.1544 36.1113 12.4495 35.957 12.7575 35.8327C13.0658 35.7084 13.385 35.6129 13.719 35.5558C13.8031 35.5417 13.8874 35.5297 13.9772 35.5219C13.9999 35.5198 14.0226 35.5181 14.049 35.5164L14.0619 35.5157L14.09 35.515H14.0937L14.108 35.5154L14.1368 35.5164L14.2513 35.5202L14.7097 35.5362C14.9929 35.5472 15.2765 35.5602 15.5597 35.5746C15.5465 35.3415 15.5343 35.108 15.5242 34.8745C15.5113 34.5856 15.5001 34.2963 15.4899 34.0074C15.4699 33.4292 15.4544 32.851 15.4422 32.2728C15.4184 31.1165 15.4073 29.9604 15.4073 28.804C15.4069 27.6477 15.4181 26.4916 15.4418 25.3353L15.4554 24.7516C15.1461 24.7211 14.8367 24.6896 14.5274 24.6564C14.2428 24.6256 13.9582 24.5941 13.6736 24.5606C13.3894 24.5277 13.1048 24.4921 12.8209 24.4541C13.1075 24.4568 13.3938 24.462 13.6801 24.4698C13.9664 24.477 14.2526 24.4863 14.5386 24.4962C14.8848 24.5085 15.2308 24.5226 15.5767 24.5383L15.6776 24.5428L15.6803 24.6503L15.6963 25.3353C15.72 26.4916 15.7312 27.648 15.7308 28.804C15.7305 29.9604 15.7196 31.1165 15.6959 32.2728C15.6834 32.851 15.6685 33.4292 15.6482 34.0074C15.6377 34.2967 15.6268 34.5856 15.6139 34.8745C15.6038 35.108 15.5916 35.3418 15.5784 35.5753C15.5943 35.5759 15.6102 35.5766 15.6265 35.5777C16.2377 35.6112 16.8485 35.6519 17.4597 35.7064C17.7653 35.7344 18.0709 35.7639 18.3765 35.7988C18.6821 35.8327 18.9877 35.8727 19.293 35.92C18.9874 35.9669 18.6821 36.0073 18.3765 36.0412C18.0709 36.0764 17.7653 36.1055 17.4597 36.1336C16.8485 36.188 16.2377 36.2291 15.6265 36.2623C15.3209 36.2784 15.0153 36.2921 14.71 36.3041L14.2516 36.3202L14.1371 36.3236L14.1154 36.3243C14.1134 36.3243 14.1093 36.3246 14.1141 36.3243H14.1131H14.1114C14.1073 36.325 14.1127 36.3246 14.1093 36.325Z" fill="black"/>
    <path d="M2.20086 34.4599C2.168 34.4668 2.13513 34.4726 2.10227 34.4777C2.03654 34.4883 1.97081 34.4955 1.90543 34.5017C1.77431 34.513 1.64353 34.5168 1.51241 34.5144C1.38163 34.512 1.25086 34.5031 1.12042 34.487C1.05503 34.4788 0.989978 34.4685 0.92459 34.4555C0.892064 34.449 0.859539 34.4421 0.827014 34.4339C0.794489 34.426 0.761964 34.4168 0.729439 34.4058C0.762303 34.3963 0.795168 34.3884 0.828032 34.3815C0.860895 34.3747 0.89376 34.3689 0.926624 34.3634C0.992352 34.3531 1.05808 34.3456 1.12347 34.3398C1.25458 34.3285 1.38536 34.3247 1.51648 34.3271C1.64725 34.3298 1.77803 34.3387 1.90847 34.3548C1.97352 34.3631 2.03891 34.3733 2.1043 34.386C2.13683 34.3925 2.16935 34.3997 2.20188 34.4076C2.2344 34.4154 2.26693 34.4247 2.29945 34.4353C2.26659 34.4456 2.23372 34.4534 2.20086 34.4599Z" fill="black"/>
    <path d="M2.05786 35.286C1.99213 35.2963 1.92674 35.3038 1.86136 35.3096C1.73024 35.3209 1.59913 35.3247 1.46869 35.3223C1.33791 35.3199 1.20713 35.311 1.07669 35.2949C1.01131 35.2864 0.94626 35.2764 0.880871 35.2634C0.848346 35.2566 0.815822 35.2497 0.783297 35.2415C0.750772 35.2337 0.718247 35.2244 0.685722 35.2135C0.718586 35.2039 0.751446 35.196 0.78431 35.1891C0.817174 35.1823 0.850038 35.1765 0.882902 35.171C0.948629 35.1604 1.01436 35.1532 1.07975 35.1474C1.21086 35.1361 1.34198 35.1323 1.47275 35.1347C1.60353 35.1375 1.7343 35.1464 1.86474 35.1625C1.93013 35.171 1.99518 35.1809 2.06057 35.1939C2.09309 35.2004 2.12562 35.2073 2.15848 35.2155C2.19101 35.2234 2.22353 35.2326 2.25606 35.2432C2.22319 35.2528 2.19033 35.2607 2.15747 35.2672C2.12359 35.2751 2.09072 35.2806 2.05786 35.286Z" fill="black"/>
    <path d="M1.37587 33.0499L1.93421 33.0584C2.12021 33.0618 2.30655 33.0663 2.49256 33.0721C2.30655 33.0838 2.12089 33.0937 1.93489 33.1026L1.37722 33.1279L0.70233 33.1536L0.681663 33.4969C0.640668 34.1518 0.594929 34.806 0.545125 35.4598L0.666075 35.4646C1.28202 35.4886 1.89728 35.5163 2.51288 35.5485L2.53287 35.2921C2.56269 34.9173 2.59386 34.5427 2.6274 34.1679L2.67958 33.6065C2.69753 33.4192 2.7165 33.232 2.73683 33.0451C2.73344 33.233 2.72904 33.4213 2.72294 33.6092L2.70431 34.173C2.69042 34.5489 2.67415 34.9244 2.6562 35.3L2.64027 35.6228L2.63723 35.6871L2.5715 35.6854C1.93421 35.669 1.29693 35.6485 0.65998 35.6238L0.457377 35.6159L0.375385 35.6129L0.38182 35.5304C0.43569 34.8491 0.493966 34.1679 0.557661 33.4874L0.595267 33.0954L0.600011 33.0437L0.649475 33.044L1.37587 33.0499Z" fill="black"/>
    <path d="M1.89084 34.9505C1.75973 34.9618 1.62895 34.9655 1.49818 34.9635C1.3674 34.9611 1.23662 34.9522 1.10618 34.9361C1.04079 34.9275 0.975747 34.9176 0.910359 34.9046C0.877834 34.8978 0.845309 34.8909 0.812445 34.8827C0.77992 34.8748 0.747395 34.8656 0.71487 34.8546C0.747734 34.8451 0.780595 34.8372 0.813458 34.8303C0.846322 34.8235 0.879187 34.8177 0.91205 34.8125C0.977778 34.8023 1.04317 34.7944 1.1089 34.7886C1.24001 34.7773 1.37079 34.7735 1.50156 34.7762C1.63234 34.779 1.76312 34.7879 1.89355 34.804C1.95894 34.8125 2.02399 34.8225 2.08938 34.8351C2.12191 34.8416 2.15443 34.8488 2.18696 34.8567C2.21948 34.8646 2.25201 34.8738 2.28453 34.8844C2.25167 34.894 2.2188 34.9019 2.18594 34.9084C2.15307 34.9152 2.12021 34.921 2.08735 34.9262C2.0223 34.9371 1.95623 34.9447 1.89084 34.9505Z" fill="black"/>
    <path d="M0.91205 33.9447C0.977777 33.9341 1.04317 33.9269 1.1089 33.9211C1.24001 33.9098 1.37079 33.906 1.50156 33.9084C1.63234 33.9111 1.76312 33.92 1.89355 33.9361C1.95894 33.9443 2.02399 33.9546 2.08938 33.9673C2.12191 33.9738 2.15443 33.981 2.18696 33.9888C2.21948 33.9967 2.25201 34.006 2.28453 34.0166C2.25167 34.0258 2.2188 34.034 2.18594 34.0405C2.15307 34.0474 2.12021 34.0532 2.08735 34.0583C2.02196 34.0686 1.95589 34.0761 1.89051 34.0823C1.75939 34.0936 1.62861 34.0974 1.49784 34.095C1.36706 34.0926 1.23628 34.0837 1.10584 34.0676C1.04045 34.0594 0.975408 34.0491 0.910019 34.0364C0.877495 34.0299 0.844969 34.0231 0.812106 34.0149C0.779581 34.007 0.747056 33.9977 0.714531 33.9868C0.747395 33.9772 0.780259 33.9693 0.813123 33.9625C0.846325 33.9556 0.879186 33.9502 0.91205 33.9447Z" fill="black"/>
    <path d="M24.3946 34.6634L24.4 34.4159L26.4691 34.2656L26.4867 33.8979L24.4082 34.0475L24.4146 33.7528L26.5009 33.6039L26.5189 33.2366L24.4227 33.3841L24.4288 33.0894L26.5331 32.9425L26.5507 32.5749L24.437 32.7207L24.4434 32.4256L26.5653 32.2808L26.5829 31.9131L24.4512 32.0569L24.4563 31.8358L26.5938 31.6927L26.6117 31.325L24.4641 31.4667L24.4705 31.1717L26.626 31.031L26.6439 30.663L24.4786 30.803L24.4851 30.5075L26.6585 30.3689L26.6764 30.0012L24.4929 30.1389L24.4993 29.8434L26.6907 29.7068L26.7086 29.3392L24.5074 29.4744L24.5146 29.1423L26.7249 29.0078L26.7432 28.6402L24.5227 28.773L24.5291 28.4775L26.7574 28.3458L26.7757 27.9778L24.5373 28.1082L24.5437 27.8128L26.7899 27.6834L26.8082 27.3154L24.5515 27.4434L24.5579 27.148L26.8228 27.0209L26.8411 26.6526L24.5661 26.7786L24.5708 26.5568L26.8519 26.4318L26.8702 26.0638L24.5789 26.1874L24.5854 25.8916L26.8848 25.7691L26.9031 25.4011L24.5932 25.5219L24.5996 25.2261L26.9177 25.1063L26.9363 24.7383L24.6077 24.8564L24.6142 24.5606L26.9509 24.4436L26.9692 24.0752L24.6223 24.1909L24.6284 23.9078L27.5228 22.823L26.7761 34.7579L24.3946 34.6634Z" fill="black"/>
    <path d="M8.1058 22.7205C8.22302 22.7332 8.34058 22.752 8.45781 22.7804C8.51642 22.7948 8.5747 22.8116 8.63297 22.8318L8.67668 22.8478L8.72004 22.8653C8.75053 22.8783 8.78069 22.8927 8.8105 22.9098C8.86979 22.9437 8.92807 22.9872 8.97719 23.0433C9.02666 23.0995 9.06494 23.1683 9.08629 23.2405C9.10797 23.3127 9.11339 23.3863 9.10933 23.4555C9.10526 23.5246 9.09171 23.59 9.07341 23.652C9.03682 23.7756 8.98227 23.8868 8.92061 23.9909C8.89723 24.0302 8.8725 24.0686 8.84709 24.1059L8.85997 24.1062C9.35123 24.1264 9.84215 24.1487 10.3331 24.1757C10.5784 24.1894 10.824 24.2035 11.0693 24.2192C11.3149 24.235 11.5602 24.2524 11.8055 24.2723C11.5595 24.2829 11.3136 24.2911 11.0679 24.2973C10.822 24.3041 10.5763 24.3086 10.3304 24.313C9.83876 24.3212 9.34716 24.325 8.8559 24.3264L8.62247 24.3267L8.38904 24.327L8.5381 24.1377C8.5686 24.0991 8.60146 24.0528 8.6306 24.0083C8.66008 23.9631 8.6882 23.9169 8.71394 23.87C8.7651 23.7762 8.80847 23.6794 8.83388 23.5828C8.85963 23.487 8.86505 23.3918 8.84032 23.3182C8.8166 23.2446 8.76239 23.1874 8.68243 23.144C8.66244 23.1333 8.64178 23.1234 8.61942 23.1145L8.58385 23.1008L8.54759 23.0882C8.49847 23.0721 8.44799 23.058 8.39649 23.0464C8.29349 23.0228 8.18677 23.0067 8.07903 22.9961C7.86322 22.9752 7.64367 22.9755 7.42447 22.9903C6.94845 23.0238 6.47481 23.1251 6.02285 23.2853C5.57055 23.4459 5.14062 23.6677 4.75201 23.9539C4.36138 24.2387 4.00699 24.5769 3.68818 24.948C3.52861 25.1336 3.37852 25.3284 3.2369 25.53C3.09664 25.732 2.96213 25.9397 2.84457 26.1582C2.93469 25.9264 3.04785 25.7039 3.17151 25.4875C3.29551 25.2712 3.43273 25.0624 3.5818 24.8614C3.8796 24.4599 4.2262 24.0915 4.61988 23.7773C5.01323 23.4613 5.46112 23.2124 5.93273 23.0344C6.40468 22.8564 6.90102 22.7451 7.4055 22.7095C7.6369 22.6952 7.87101 22.6955 8.1058 22.7205Z" fill="black"/>
    <path d="M6.37011 36.4164C7.32857 36.221 8.28907 36.0347 9.2516 35.8591C9.7327 35.7718 10.2148 35.6866 10.6973 35.6058C10.9385 35.5657 11.1801 35.526 11.422 35.488C11.6635 35.4497 11.9058 35.4134 12.1483 35.3792C11.9119 35.4428 11.6747 35.5045 11.4372 35.564C11.1997 35.6239 10.9619 35.6821 10.724 35.7396C10.2484 35.8547 9.77166 35.9652 9.29429 36.0734C8.33989 36.2891 7.38312 36.4941 6.42465 36.6899L6.18648 36.7385L6.05096 36.7659L6.02385 36.6297L5.90663 36.0409L5.87749 35.8947L6.0225 35.8766C6.71602 35.7903 7.41023 35.7092 8.10477 35.6335C8.59095 35.5808 9.07746 35.5308 9.56466 35.4849C9.80825 35.4624 10.0518 35.4401 10.2958 35.4199C10.5397 35.399 10.7837 35.3805 11.0283 35.3638C10.7877 35.4103 10.5468 35.4548 10.3056 35.4969C10.0644 35.5397 9.82316 35.5805 9.58193 35.6209C9.09914 35.7013 8.61601 35.7773 8.13255 35.8509C7.48984 35.9481 6.84646 36.0405 6.20274 36.1285L6.26644 36.4363L6.37011 36.4164Z" fill="black"/>
    <path d="M3.61601 26.5129L3.08274 26.5112L2.84422 26.5105L2.9611 26.302C3.14507 25.9734 3.39884 25.692 3.68377 25.4609C3.96938 25.2292 4.28514 25.0443 4.61208 24.8927C5.07827 24.6777 5.5675 24.5284 6.06215 24.4223C6.30981 24.3699 6.55917 24.3282 6.80954 24.2977C7.05992 24.2672 7.31131 24.2463 7.56303 24.2429C7.31402 24.2772 7.06737 24.3241 6.82242 24.3761C6.5778 24.4291 6.33488 24.4894 6.09535 24.5585C5.61628 24.6972 5.14739 24.869 4.70864 25.095C4.40067 25.2538 4.10727 25.4397 3.84809 25.6622C3.65226 25.8299 3.47642 26.0196 3.33311 26.2291L3.88908 26.2274L4.16656 26.2264L4.00359 26.4557L3.95379 26.5259C3.66717 26.936 3.39375 27.3595 3.12949 27.7874C2.86556 28.2156 2.61146 28.6504 2.36854 29.0916C2.12494 29.5326 1.89287 29.9803 1.67265 30.4346C1.56254 30.6615 1.45581 30.8906 1.35214 31.1213C1.24881 31.352 1.14852 31.5845 1.05128 31.819C1.11938 31.5745 1.19562 31.3318 1.27862 31.0915C1.36129 30.8512 1.45073 30.6133 1.54492 30.3771C1.73397 29.905 1.94437 29.4415 2.17102 28.9859C2.39802 28.5309 2.64128 28.0838 2.8991 27.6457C3.12678 27.2605 3.3636 26.8826 3.61601 26.5129Z" fill="black"/>
    <path d="M23.7905 34.8934L23.9698 28.6411L22.6959 29.3258C22.703 29.3261 22.7098 29.3265 22.7169 29.3268L23.2972 29.358L23.5608 29.372L23.5707 29.6606C23.6076 30.7362 23.6252 31.8114 23.6255 32.8874C23.6259 33.4282 23.6215 33.9695 23.6127 34.5107L23.6069 34.8626L23.2701 34.8568C22.5475 34.8444 21.8252 34.8236 21.1028 34.7931C20.7661 34.7784 20.4293 34.7619 20.0925 34.7428L19.8737 34.7304L19.8635 34.5353C19.8483 34.2399 19.8351 33.9445 19.8239 33.6487C19.8127 33.3303 19.8025 33.0116 19.7974 32.6929C19.791 32.3739 19.79 32.0545 19.7944 31.7344C19.8666 32.0459 19.9333 32.3585 19.9946 32.6714C20.0573 32.9842 20.1149 33.2975 20.1715 33.6107C20.2108 33.8294 20.248 34.0485 20.2846 34.2676C20.433 34.2594 20.5814 34.2519 20.7298 34.2447L20.4991 33.0794L22.1003 33.2999L21.8099 34.2012C22.1809 34.1889 22.5519 34.1786 22.9232 34.1711C22.9181 33.7932 22.9154 33.4152 22.9147 33.0373L20.4632 32.8566L20.1224 31.6509L22.9208 31.8566C22.9276 31.2134 22.9412 30.5702 22.9615 29.9266L22.6667 29.8879C22.0427 29.8027 21.4196 29.7109 20.7972 29.6082C20.4862 29.5565 20.1752 29.5035 19.8645 29.4456C19.6294 29.4025 19.3943 29.3566 19.1598 29.3077C19.1602 29.3549 19.1605 29.4021 19.1608 29.4494C19.1612 29.5682 19.1605 29.6873 19.1602 29.8061L22.4523 30.589L22.5658 31.4212L19.1849 31.1056L19.153 30.7341C19.1453 31.3031 19.132 31.8713 19.1134 32.4396C19.0965 32.9377 19.0765 33.4354 19.0511 33.9328C19.0267 34.4306 18.9965 34.928 18.9596 35.425C18.9366 34.9273 18.9152 34.4295 18.8966 33.9321L18.8407 32.4403C18.8041 31.4462 18.7695 30.4524 18.7238 29.4607C18.7014 28.965 18.676 28.4696 18.6442 27.976C18.6279 27.7292 18.6099 27.4831 18.5883 27.2383C18.5666 26.9939 18.5415 26.7498 18.5063 26.5132C18.4687 26.2664 18.4348 26.0172 18.4019 25.7707C18.3687 25.5243 18.3372 25.2788 18.2989 25.0402C18.2603 24.8026 18.2149 24.5688 18.1417 24.3682C18.1051 24.2683 18.0611 24.1789 18.0082 24.106C17.9554 24.0327 17.8944 23.9756 17.8195 23.9297C17.6708 23.8373 17.4604 23.7931 17.2378 23.7767C17.1822 23.7726 17.1253 23.7698 17.0681 23.7688L16.8858 23.7661L16.5162 23.7603C16.0236 23.752 15.5313 23.7418 15.0387 23.7301C14.0541 23.7069 13.0696 23.6778 12.085 23.6428C11.1994 23.6107 10.3141 23.5744 9.42847 23.5312L9.31294 23.5254L9.28347 23.3909C9.2838 23.3923 9.28347 23.3854 9.28313 23.3816L9.28177 23.3676C9.28076 23.358 9.2794 23.3478 9.27771 23.3378C9.27432 23.3176 9.27026 23.2971 9.26517 23.2766C9.25501 23.2355 9.24146 23.1947 9.22485 23.1557C9.18386 23.0575 9.12321 22.9678 9.04664 22.8921C8.97008 22.8165 8.87725 22.7548 8.77493 22.7083C8.67261 22.6617 8.56081 22.6299 8.44595 22.6097C8.41715 22.6046 8.38836 22.6005 8.35888 22.5963L8.26876 22.5854C8.20879 22.5789 8.14849 22.5738 8.08818 22.5696C7.84696 22.5539 7.60302 22.5583 7.35976 22.582C7.11718 22.6066 6.87392 22.647 6.63744 22.7186C6.86376 22.6183 7.10363 22.5494 7.34689 22.4981C7.59082 22.4478 7.83984 22.4187 8.09089 22.4125C8.15357 22.4108 8.21625 22.4108 8.27927 22.4118L8.37345 22.4149C8.40496 22.4163 8.43782 22.418 8.46967 22.4211C8.59875 22.4327 8.72885 22.4577 8.85523 22.5032C8.9816 22.5488 9.1039 22.6155 9.21097 22.7062C9.31803 22.7966 9.40747 22.9099 9.47184 23.0366C9.49793 23.0876 9.51961 23.1403 9.53757 23.1951C9.54163 23.2071 9.54434 23.2194 9.54773 23.2317C10.3954 23.216 11.2431 23.206 12.0908 23.2002C13.0757 23.1937 14.0605 23.1927 15.0454 23.1961L16.5223 23.2043L16.8912 23.2071L17.0782 23.2084C17.144 23.2098 17.2104 23.2122 17.2775 23.217C17.4113 23.2266 17.5485 23.244 17.6884 23.2783C17.828 23.3128 17.9727 23.3652 18.1085 23.4487C18.2447 23.5312 18.3674 23.6473 18.4585 23.7757C18.5507 23.904 18.614 24.0413 18.6625 24.1745C18.7577 24.4425 18.8017 24.7006 18.8414 24.9536C18.8793 25.2066 18.9081 25.4548 18.9376 25.7019C18.9667 25.9491 18.9958 26.1932 19.028 26.439C19.0609 26.6954 19.0805 26.947 19.0968 27.1986C19.1127 27.4499 19.1242 27.7004 19.1331 27.9507C19.1483 28.3858 19.1554 28.8195 19.1585 29.2536C19.3997 29.2481 19.6409 29.246 19.8815 29.2471C20.1972 29.2471 20.5126 29.2522 20.8281 29.2584C21.297 29.2683 21.7655 29.2844 22.2338 29.3046L22.3605 24.5305L24.5447 23.0612L24.2049 34.9054L23.7905 34.8934ZM22.6867 27.8908L24.0128 27.1476L24.0253 26.7094L22.6993 27.4221L22.6867 27.8908ZM22.7125 26.9254L24.0406 26.1812L24.0514 25.7995L22.7233 26.5132L22.7125 26.9254ZM22.7365 26.0162L24.0663 25.2709L24.0789 24.8338L22.7487 25.5486L22.7365 26.0162ZM24.0941 24.3039L24.1077 23.8321L22.7721 24.676L22.7623 25.0505L24.0941 24.3039ZM23.9975 27.6751L22.6735 28.3865L22.661 28.8558L23.9847 28.114L23.9975 27.6751Z" fill="black"/>
    <path d="M8.34567 28.1866C8.29688 28.2373 8.24166 28.2835 8.18033 28.3215C8.16509 28.3311 8.1495 28.34 8.13324 28.3482L8.09123 28.3701C8.06548 28.3838 8.03905 28.3985 8.01296 28.4132C7.8107 28.5303 7.61657 28.6713 7.42684 28.8175C7.23711 28.9644 7.05179 29.1184 6.86918 29.2759C6.50496 29.5915 6.14787 29.9215 5.80398 30.2584L5.44519 30.6093L5.56886 30.1221L5.58952 30.0406C5.71759 29.5497 5.86531 29.0667 6.03132 28.5885C6.19801 28.1109 6.38367 27.6389 6.60152 27.1805C6.71096 26.9515 6.82886 26.7262 6.95997 26.5078C7.09143 26.2901 7.23576 26.0782 7.40584 25.8855C7.49087 25.7896 7.58303 25.6986 7.68467 25.6185C7.78631 25.5387 7.89879 25.4696 8.02279 25.4275C8.14578 25.3847 8.28163 25.373 8.40733 25.4028C8.53336 25.4316 8.64551 25.4969 8.74105 25.5774C8.63636 25.5093 8.52015 25.4593 8.39988 25.4449C8.27994 25.4298 8.15933 25.4524 8.05125 25.5014C7.94249 25.55 7.84458 25.6219 7.75582 25.7037C7.66705 25.7859 7.58676 25.878 7.51222 25.9748C7.36349 26.1693 7.23677 26.3819 7.1209 26.6003C7.00503 26.819 6.90068 27.0443 6.80311 27.2729C6.60796 27.7303 6.43924 28.2003 6.28407 28.6748C6.1726 29.0171 6.06825 29.3622 5.97135 29.7086C6.20818 29.4892 6.44974 29.2759 6.69842 29.0691C6.88747 28.9127 7.07991 28.7603 7.27946 28.6159C7.47936 28.4718 7.68467 28.3335 7.9076 28.2164C7.9364 28.2013 7.9652 28.1869 7.99535 28.1729L8.03736 28.1534C8.04922 28.1479 8.06107 28.1418 8.07259 28.1356C8.11867 28.1099 8.16204 28.0777 8.20168 28.0397C8.28197 27.9641 8.34804 27.8679 8.40259 27.7631C8.51168 27.5526 8.57842 27.3133 8.62687 27.0713C8.67498 26.8286 8.7031 26.5801 8.72106 26.3302C8.738 26.0803 8.74579 25.829 8.74105 25.577C8.77629 25.8266 8.79424 26.0792 8.79932 26.3322C8.80407 26.5852 8.79458 26.8395 8.76307 27.0936C8.73021 27.3469 8.67735 27.6019 8.56826 27.845C8.51337 27.9668 8.44291 28.0849 8.34567 28.1866Z" fill="black"/>
    <path d="M9.4986 42.5744L9.47184 42.9465L9.45422 43.1929L9.21266 43.1912C8.59672 43.1864 7.98078 43.1683 7.36484 43.1361C6.99555 43.1159 6.62592 43.0913 6.25663 43.0581C6.07198 43.0413 5.887 43.0235 5.70235 43.0019C5.5177 42.9814 5.33306 42.9567 5.14808 42.9283C5.33306 42.8996 5.5177 42.8753 5.70235 42.8547C5.887 42.8335 6.07198 42.8157 6.25663 42.7986C6.62626 42.7654 6.99555 42.7407 7.36484 42.7209C7.89947 42.6928 8.4341 42.6764 8.96872 42.6692L8.97719 42.5384C9.00938 42.065 9.04936 41.5926 9.09645 41.1201C8.97143 41.0962 8.84641 41.0719 8.7214 41.0469C8.35854 40.9729 7.99671 40.8949 7.63554 40.8086C7.45496 40.7652 7.27472 40.7207 7.09516 40.6727C6.91525 40.6255 6.73603 40.5745 6.55714 40.5194C6.74416 40.518 6.93016 40.5211 7.11616 40.5276C7.30182 40.5334 7.48715 40.5426 7.67247 40.5529C8.04278 40.5741 8.41207 40.6036 8.78035 40.6371C8.98092 40.6559 9.18115 40.6765 9.38138 40.6981L9.58601 40.7203L9.5789 40.9456C9.5623 41.4895 9.53486 42.0325 9.4986 42.5744Z" fill="black"/>
    <path d="M5.34727 36.1354L5.23716 36.1443L5.23276 36.0347C5.21751 35.6537 5.2148 35.2761 5.22022 34.8972C5.22598 34.5182 5.24089 34.1396 5.26766 33.7617C5.30425 33.2537 5.36015 32.746 5.45569 32.2448C5.5038 31.9946 5.56173 31.7454 5.63729 31.502C5.70132 31.2962 5.77789 31.0932 5.8775 30.9029L5.4994 30.919L6.2478 30.4791C6.33047 30.4305 6.41822 30.3757 6.50258 30.3216C6.58762 30.2672 6.67198 30.2114 6.75601 30.1546C6.92337 30.0409 7.08803 29.9232 7.2493 29.8009C7.58776 29.5435 7.91267 29.2669 8.19794 28.9581C8.23352 28.9195 8.26841 28.8804 8.30229 28.8407C8.33617 28.801 8.37073 28.7599 8.39885 28.7223C8.45644 28.6449 8.5076 28.558 8.55233 28.4666C8.64177 28.2831 8.70817 28.0821 8.76103 27.8764C8.86639 27.4639 8.92128 27.0326 8.95584 26.6002C8.98836 26.1672 9.00225 25.7307 8.99412 25.2932C9.02258 25.4955 9.04426 25.6989 9.06053 25.9025C9.08695 25.691 9.13167 25.5373 9.21265 25.4894C9.21265 25.4894 10.2907 25.0536 10.2189 26.2883C10.1471 27.5228 10.2189 28.6846 9.09305 28.5877C9.09305 28.5877 8.94093 28.5764 8.89282 28.3546C8.86877 28.4316 8.842 28.5087 8.81049 28.5847C8.76611 28.6922 8.71292 28.7976 8.64651 28.8989C8.61229 28.9503 8.57875 28.9948 8.54487 29.0396C8.51065 29.0845 8.47576 29.129 8.43985 29.1721C8.15288 29.5189 7.82729 29.8232 7.48714 30.1063C7.3672 30.2056 7.24489 30.3018 7.12089 30.3956C8.17931 30.3254 9.23772 30.2658 10.2978 30.2203C11.1628 30.184 12.0274 30.1539 12.8971 30.1491C13.0059 30.1488 13.1149 30.1488 13.224 30.1501L13.388 30.1525C13.4405 30.1535 13.491 30.1539 13.5422 30.1532C13.7465 30.1505 13.9484 30.1323 14.1364 30.0871C14.3235 30.0423 14.4973 29.967 14.6165 29.8537C14.6761 29.7972 14.7222 29.7318 14.7517 29.6589C14.7666 29.6223 14.7771 29.5839 14.7839 29.5445C14.7903 29.5055 14.7923 29.4638 14.79 29.4285L14.7893 29.4199L14.789 29.4165V29.4155V29.4151L14.7856 29.3997V29.3826C14.7883 28.5165 14.8022 27.6522 14.8405 26.7868C14.8506 26.568 14.8621 26.3489 14.8774 26.1302L14.8889 25.9683C14.8916 25.9166 14.8923 25.8649 14.8896 25.8139C14.8845 25.7115 14.8669 25.6109 14.831 25.5171C14.7954 25.4236 14.7405 25.3384 14.6677 25.2686C14.5948 25.1987 14.505 25.1453 14.4078 25.1083C14.3102 25.071 14.2055 25.0488 14.0995 25.0378C13.9931 25.0272 13.8847 25.0265 13.7773 25.0388C13.8827 25.0132 13.9914 25.0009 14.1012 24.9991C14.2106 24.9978 14.3218 25.0084 14.4302 25.0375C14.5386 25.0662 14.6446 25.1148 14.7364 25.1871C14.8283 25.259 14.9038 25.3548 14.955 25.4609C15.0071 25.5674 15.0373 25.6824 15.0529 25.7971C15.0607 25.8546 15.0651 25.9121 15.0664 25.9696L15.0678 26.1353C15.0698 26.353 15.0742 26.5708 15.0797 26.7885C15.1017 27.644 15.1328 28.5011 15.1671 29.3563L15.1688 29.3662L15.1715 29.3871C15.1799 29.4603 15.1786 29.5285 15.1704 29.5976C15.162 29.6664 15.1464 29.7342 15.1227 29.7999C15.0763 29.9314 14.998 30.0512 14.9031 30.1474C14.8086 30.2443 14.6992 30.3185 14.587 30.3761C14.4749 30.4336 14.3594 30.4753 14.2438 30.5072C14.0124 30.5705 13.7817 30.5958 13.5544 30.6054C13.4978 30.6075 13.4402 30.6085 13.3846 30.6088L13.2247 30.6106L12.9035 30.6167C12.0443 30.639 11.1811 30.6776 10.3188 30.7139L6.37045 30.8817L5.88969 30.9019C5.80601 31.1008 5.7457 31.3086 5.69522 31.5174C5.63695 31.7628 5.59392 32.0117 5.5597 32.2616C5.4916 32.7617 5.45603 33.266 5.4357 33.7706C5.42079 34.1461 5.41537 34.522 5.41673 34.8978C5.41808 35.2409 5.42486 35.5856 5.43977 35.9269C5.48754 35.9348 5.53429 35.9498 5.57596 35.9738C5.6505 36.0155 5.70742 36.0748 5.75113 36.1357C5.83854 36.2593 5.88597 36.3918 5.92459 36.5229C5.98863 36.7502 6.01877 36.9782 6.03944 37.2058C6.05909 37.4335 6.06655 37.6604 6.06689 37.887C6.06689 38.3081 6.04554 38.7257 6.00523 39.1444L6.25526 39.1482C6.75736 39.1564 7.25946 39.1667 7.76157 39.18L8.51472 39.2026C8.76577 39.2112 9.01682 39.2207 9.26787 39.2324C9.01682 39.244 8.76577 39.2536 8.51472 39.2622L7.76157 39.2851C7.25946 39.2985 6.75736 39.3087 6.25526 39.3169L5.90765 39.3221L5.81211 39.3234L5.81956 39.2238C5.8531 38.7812 5.86869 38.3331 5.86293 37.8891C5.85954 37.6669 5.85005 37.4451 5.82973 37.2257C5.80872 37.0066 5.77823 36.7882 5.72029 36.5835C5.68641 36.466 5.64237 36.351 5.57935 36.2627C5.54818 36.2185 5.51193 36.1833 5.47399 36.1617C5.43435 36.1398 5.39369 36.1316 5.34727 36.1354Z" fill="black"/>
    <path d="M48.6107 41.5513C48.6107 41.6506 48.5311 41.731 48.4328 41.731H47.5726C47.4744 41.731 47.3947 41.6506 47.3947 41.5513C47.3947 41.452 47.4744 41.3716 47.5726 41.3716H48.4328C48.5311 41.3719 48.6107 41.452 48.6107 41.5513Z" fill="black"/>
    <path d="M49.167 41.1082C49.4099 41.1082 49.6068 41.307 49.6068 41.5525C49.6068 41.7979 49.4099 41.9968 49.167 41.9968C48.9241 41.9968 48.7272 41.7979 48.7272 41.5525C48.7272 41.307 48.9241 41.1082 49.167 41.1082Z" fill="black"/>
    <path d="M48.5223 41.9486C48.5917 41.8785 48.7042 41.8785 48.7737 41.9486C48.8431 42.0188 48.8431 42.1325 48.7737 42.2026L48.1655 42.8171C48.0961 42.8873 47.9836 42.8873 47.9141 42.8171C47.8447 42.7469 47.8447 42.6333 47.9141 42.5631L48.5223 41.9486Z" fill="black"/>
    <path d="M49.167 42.1138C49.2653 42.1138 49.3449 42.1939 49.3449 42.2935V43.1627C49.3449 43.2619 49.2653 43.3424 49.167 43.3424C49.0688 43.3424 48.9891 43.2619 48.9891 43.1627V42.2935C48.9891 42.1939 49.0688 42.1138 49.167 42.1138Z" fill="black"/>
    <path d="M49.8117 41.9486L50.4199 42.5631C50.4893 42.6333 50.4893 42.7469 50.4199 42.8171C50.3504 42.8873 50.238 42.8873 50.1685 42.8171L49.5604 42.2026C49.4909 42.1324 49.4909 42.0188 49.5604 41.9486C49.6298 41.8788 49.7423 41.8788 49.8117 41.9486Z" fill="black"/>
    <path d="M48.7737 41.1538C48.7042 41.224 48.5917 41.224 48.5223 41.1538L47.9141 40.5393C47.8447 40.4691 47.8447 40.3555 47.9141 40.2853C47.9836 40.2151 48.0961 40.2151 48.1655 40.2853L48.7737 40.8998C48.8431 40.9699 48.8431 41.0836 48.7737 41.1538Z" fill="black"/>
    <path d="M42.1715 40.8978C42.0597 40.8978 41.9689 40.806 41.9689 40.6931V39.702C41.9689 39.5887 42.0597 39.497 42.1715 39.4973C42.2833 39.4973 42.3741 39.5891 42.3741 39.702V40.6931C42.3741 40.806 42.2833 40.8978 42.1715 40.8978Z" fill="black"/>
    <path d="M27.5095 40.7061C27.5204 40.4647 27.5319 40.2234 27.5455 39.9824C27.5587 39.7411 27.5743 39.4997 27.5926 39.2584C27.6108 39.4997 27.6264 39.7411 27.6396 39.9824C27.6532 40.2237 27.6647 40.4647 27.6756 40.7061C27.6928 41.1045 27.7064 41.503 27.7179 41.9015C28.0682 41.8864 28.4182 41.8738 28.7682 41.8621L28.7695 41.8197C28.779 41.4921 28.7902 41.1645 28.8044 40.8368C28.8129 40.6465 28.8221 40.4562 28.8329 40.2662C28.8431 40.0759 28.8556 39.8855 28.8702 39.6955C28.8847 39.8859 28.8969 40.0762 28.9074 40.2662C28.9183 40.4565 28.9271 40.6469 28.9356 40.8368C28.9484 41.1299 28.9586 41.4226 28.9671 41.7156L29.0274 41.7139C29.7805 41.694 30.534 41.6848 31.2872 41.6851C31.9665 41.6851 32.6454 41.693 33.3247 41.7091L33.3251 41.7005C33.3352 41.3199 33.3478 40.9392 33.3644 40.5589C33.3728 40.3685 33.3816 40.1782 33.3925 39.9882C33.4026 39.7979 33.4152 39.6076 33.4294 39.4176C33.4436 39.6079 33.4562 39.7982 33.4663 39.9882C33.4772 40.1786 33.486 40.3689 33.4944 40.5589C33.5111 40.9395 33.5236 41.3202 33.5338 41.7005L33.5365 41.8135C33.7421 41.8166 33.9478 41.8204 34.1531 41.8269C34.2659 41.8299 34.3784 41.8238 34.4844 41.8012C34.5898 41.7782 34.6897 41.7375 34.7622 41.6701C34.7839 41.6502 34.8029 41.628 34.8185 41.604C34.8263 41.592 34.833 41.5794 34.8385 41.5667C34.8412 41.5605 34.8439 41.554 34.8459 41.5479L34.8486 41.539C34.8493 41.5369 34.8503 41.5318 34.8503 41.5342L34.85 41.5414L34.8757 41.034C34.889 40.7927 34.9042 40.5513 34.9225 40.31C34.9408 40.5513 34.9564 40.7927 34.9692 41.034L34.9953 41.5414V41.5438L34.995 41.5489C34.994 41.5598 34.9933 41.5639 34.9919 41.5705L34.9882 41.5879C34.9855 41.5992 34.9825 41.6098 34.9791 41.6208C34.972 41.642 34.9635 41.6622 34.9533 41.6814C34.9333 41.72 34.9086 41.7553 34.8801 41.7871C34.7843 41.8929 34.6576 41.9542 34.5332 41.9919C34.4079 42.0292 34.2805 42.0449 34.1548 42.0504L33.4392 42.0795C33.1048 42.0928 32.7704 42.1041 32.436 42.1144C32.6207 42.2144 32.8104 42.3044 33.0042 42.3838C33.5605 42.6108 34.1534 42.7494 34.7416 42.7289C35.0353 42.719 35.326 42.6683 35.6045 42.5748C35.8657 42.4872 36.1147 42.3616 36.3468 42.2051L36.3194 42.1134C36.279 42.1377 36.2384 42.1606 36.1971 42.1825C36.09 42.239 35.9799 42.2887 35.8681 42.3318C35.6441 42.4177 35.4117 42.478 35.1769 42.5122C34.8568 42.5588 34.5322 42.5574 34.2168 42.5122C33.901 42.4677 33.5947 42.3787 33.3051 42.2568C33.6096 42.3328 33.919 42.379 34.2273 42.3879C34.5352 42.3965 34.8419 42.367 35.1366 42.2962C35.3528 42.2445 35.5628 42.1712 35.7617 42.0774C35.861 42.0305 35.9579 41.9782 36.0507 41.921C36.0971 41.8922 36.1425 41.8625 36.1862 41.831C36.2082 41.8152 36.2296 41.7995 36.2503 41.7834L36.2807 41.7591C36.2899 41.7515 36.3017 41.7416 36.3065 41.7368L36.4583 41.591C36.4532 41.4818 36.4522 41.3726 36.4556 41.2641C36.5006 41.4263 36.5477 41.5869 36.5975 41.745C36.6483 41.9032 36.7015 42.059 36.7615 42.2113C36.8801 42.5163 37.0187 42.809 37.1833 43.0825C37.3473 43.3564 37.5367 43.6104 37.7508 43.8397C37.9649 44.0691 38.2031 44.2735 38.4606 44.4515C38.8631 44.7298 39.3106 44.9424 39.7822 45.1033C39.3056 44.9157 38.8505 44.6476 38.4677 44.2868C38.2583 44.09 38.0723 43.8664 37.9182 43.622C37.764 43.3779 37.642 43.1137 37.557 42.8398C37.4723 42.5656 37.4232 42.2825 37.4113 41.9997C37.4059 41.8584 37.4086 41.7173 37.4222 41.5773C37.4357 41.4376 37.4581 41.2986 37.4977 41.1651C37.4994 41.3038 37.5126 41.4404 37.5292 41.5756C37.5465 41.7108 37.5692 41.844 37.5983 41.9751C37.6559 42.2377 37.7359 42.492 37.8402 42.7337C38.0469 43.2177 38.3522 43.647 38.7306 44.002C39.1087 44.358 39.5559 44.6415 40.0343 44.8719C40.0939 44.9006 40.1542 44.9287 40.2149 44.9561C39.8266 44.713 39.4838 44.4001 39.2073 44.0424C38.8953 43.6398 38.6659 43.1797 38.5324 42.695C38.3979 42.2103 38.3593 41.7033 38.4135 41.209C38.4196 41.1542 38.427 41.0994 38.4352 41.045C38.4562 41.045 38.4772 41.045 38.4982 41.0453C38.4921 41.1018 38.487 41.1586 38.4836 41.2151C38.4525 41.7022 38.5202 42.1931 38.6788 42.6484C38.837 43.1037 39.0877 43.5227 39.4028 43.8747C39.7196 44.2296 40.1011 44.5158 40.5205 44.7171C40.9392 44.9191 41.3943 45.0365 41.852 45.0653C42.3097 45.094 42.7708 45.0345 43.2024 44.8903C43.4186 44.8191 43.6273 44.7257 43.8255 44.6141C44.024 44.5028 44.2114 44.3717 44.3852 44.2238C44.7341 43.9294 45.0252 43.5676 45.2403 43.163C45.3467 42.96 45.4365 42.7477 45.5039 42.5273C45.571 42.3068 45.6194 42.0802 45.6448 41.8498C45.696 41.3894 45.6611 40.9166 45.5371 40.4647C45.4138 40.0129 45.2013 39.5826 44.9113 39.207C44.6223 38.8312 44.2585 38.5097 43.8424 38.2725C43.4267 38.0352 42.9602 37.8822 42.4798 37.8285C41.9997 37.7737 41.5067 37.8182 41.0409 37.9603C40.8085 38.0318 40.5821 38.1256 40.368 38.2434C40.1542 38.3611 39.9516 38.5005 39.7646 38.6583C39.951 38.4994 40.1522 38.3584 40.3657 38.2393C40.5788 38.1198 40.803 38.0188 41.0355 37.9428C41.5 37.7888 41.9946 37.7254 42.4859 37.7573C42.9771 37.7891 43.465 37.9158 43.9139 38.1335C44.3635 38.3502 44.7728 38.6593 45.1099 39.0389C45.4473 39.4176 45.7143 39.8667 45.883 40.3549C45.9216 40.4664 45.9548 40.5801 45.9833 40.6951C46.0494 40.4627 46.1385 40.2378 46.251 40.0252C46.3516 39.8342 46.4718 39.6538 46.6064 39.486C46.7409 39.3183 46.892 39.1639 47.0563 39.0256C46.893 39.1649 46.7429 39.3203 46.6097 39.4888C46.4763 39.6575 46.3617 39.8407 46.2648 40.0327C46.1469 40.2686 46.0585 40.5188 46.0019 40.7759C46.0832 41.1391 46.1134 41.5153 46.089 41.8892C46.0799 42.0312 46.0629 42.1726 46.0382 42.313C46.0575 42.3845 46.0792 42.455 46.1036 42.5249C46.2425 42.924 46.4624 43.2917 46.7385 43.6001C47.0163 43.9113 47.3507 44.1622 47.7186 44.3388C48.0859 44.5162 48.4847 44.6189 48.8861 44.6442C49.2876 44.6692 49.6918 44.6172 50.0706 44.4908C50.2603 44.4285 50.4429 44.3464 50.6167 44.2485C50.7909 44.1509 50.9552 44.0359 51.1073 43.9061C51.4132 43.648 51.6687 43.3307 51.8571 42.9757C51.9502 42.7977 52.0292 42.6115 52.0885 42.4184C52.1471 42.225 52.1898 42.0261 52.2121 41.8241C52.2572 41.4205 52.2264 41.006 52.1176 40.6095C52.0095 40.2135 51.8229 39.8359 51.5691 39.5066C51.3157 39.1773 50.9965 38.8952 50.6316 38.6874C50.2667 38.4792 49.8578 38.3451 49.4367 38.2978C49.0159 38.2499 48.5833 38.2889 48.175 38.4135C47.971 38.4765 47.7725 38.5587 47.5848 38.662C47.3971 38.7654 47.2199 38.8876 47.0556 39.0256C47.2189 38.8863 47.3954 38.7627 47.5828 38.6579C47.7698 38.5532 47.9663 38.4649 48.1703 38.3981C48.5775 38.2629 49.0115 38.2074 49.4421 38.2355C49.8727 38.2632 50.3006 38.3745 50.6943 38.5655C51.0883 38.7558 51.4475 39.027 51.7432 39.3594C52.039 39.6914 52.2735 40.0854 52.4212 40.5137C52.5692 40.9416 52.6323 41.4024 52.6021 41.859C52.573 42.3157 52.4513 42.7686 52.2447 43.1797C52.141 43.3851 52.0183 43.5813 51.8754 43.7613C51.7327 43.9418 51.5725 44.1078 51.3977 44.2564C51.2222 44.4039 51.0328 44.5347 50.8322 44.6452C50.6313 44.7555 50.4192 44.8438 50.201 44.9112C49.7643 45.0447 49.3018 45.0868 48.8519 45.0362C48.4017 44.9862 47.9636 44.8438 47.5726 44.622C47.1813 44.4005 46.8378 44.0985 46.5667 43.7473C46.297 43.3998 46.0985 43.0031 45.9806 42.5848C45.9281 42.7963 45.8579 43.0038 45.7705 43.204C45.8119 43.2793 45.8542 43.3529 45.8986 43.4248C45.945 43.4998 45.9935 43.5727 46.045 43.6426C46.1473 43.7829 46.2594 43.9137 46.3814 44.0335C46.6246 44.2731 46.9052 44.4682 47.2067 44.6264C47.5086 44.7846 47.8304 44.9061 48.1621 45.0026C48.3281 45.0512 48.4969 45.0933 48.6673 45.1307C48.7391 45.1464 48.8116 45.1608 48.8841 45.1752C48.9231 45.1741 48.9624 45.1731 49.0013 45.1717C49.0962 45.168 49.1914 45.1639 49.2869 45.1567C49.231 45.1789 49.1738 45.1984 49.1158 45.2162C49.1392 45.22 49.1623 45.2241 49.186 45.2275C49.1263 45.2371 49.0664 45.2433 49.0064 45.2474C48.9153 45.2717 48.8231 45.2919 48.7303 45.3093C48.5402 45.3446 48.3474 45.3651 48.1533 45.373C47.7654 45.3871 47.3707 45.3467 46.9916 45.2327C46.6135 45.1197 46.2513 44.927 45.9592 44.6552C45.8132 44.5196 45.6852 44.3656 45.5805 44.1988C45.528 44.1153 45.4812 44.029 45.4405 43.94C45.4283 43.914 45.4172 43.8873 45.406 43.8606C45.3596 43.9281 45.3111 43.9945 45.26 44.0585C45.0973 44.2639 44.9147 44.4535 44.7155 44.623C44.5156 44.7914 44.2995 44.9403 44.0704 45.0663C43.8414 45.1919 43.5995 45.2929 43.3505 45.3696C42.9497 45.4921 42.5299 45.5469 42.1135 45.5336C41.9519 45.576 41.7866 45.6041 41.6202 45.6236C41.4539 45.6438 41.2862 45.6548 41.1178 45.6589C40.7814 45.6661 40.4426 45.6428 40.1068 45.5883C39.4367 45.4788 38.7719 45.2385 38.196 44.8407C37.9087 44.6425 37.6454 44.4059 37.4195 44.1379C37.2433 43.9294 37.0905 43.7025 36.9621 43.4639C36.7419 43.5922 36.5084 43.6997 36.2682 43.7901C35.9711 43.9014 35.6614 43.9842 35.344 44.0321C35.0265 44.0797 34.7006 44.091 34.3763 44.0561C34.0521 44.0215 33.7299 43.9394 33.4257 43.8089C33.0296 43.6398 32.6685 43.3882 32.3615 43.0866C32.0732 42.8042 31.8309 42.4804 31.6263 42.138C31.2756 42.1466 30.9247 42.1545 30.5737 42.1603C29.6186 42.176 28.6635 42.1801 27.7081 42.1712L27.5936 42.1702L27.458 42.1688L27.4614 42.0394C27.475 41.5941 27.4902 41.1501 27.5095 40.7061ZM45.5053 43.9C45.5632 43.9753 45.6232 44.0479 45.6862 44.117C45.8119 44.2553 45.9484 44.3806 46.0951 44.4902C46.3878 44.7099 46.7202 44.8664 47.0695 44.9718C47.3117 45.0451 47.5618 45.094 47.8159 45.1262C47.5672 45.0605 47.3236 44.9694 47.0925 44.8489C46.7693 44.6805 46.4715 44.4511 46.2377 44.1667C46.1212 44.0246 46.0206 43.8699 45.9406 43.7062C45.901 43.6241 45.8657 43.5402 45.8363 43.4546C45.8081 43.3742 45.7861 43.292 45.7685 43.2092C45.7411 43.2718 45.7123 43.3341 45.6814 43.3954C45.6089 43.5388 45.5283 43.6782 45.4392 43.812C45.4612 43.8411 45.4829 43.8709 45.5053 43.9ZM41.6202 45.4925C41.6785 45.4987 41.7371 45.5041 41.7961 45.5096C41.6748 45.4956 41.5545 45.4757 41.4356 45.4504C41.3356 45.4463 41.2357 45.4391 41.1364 45.4285C41.2963 45.4538 41.4579 45.4747 41.6202 45.4925ZM32.6451 42.8008C32.9127 43.0818 33.2234 43.3191 33.5703 43.4892C33.8363 43.6206 34.1222 43.7131 34.4177 43.7655C34.7131 43.8182 35.0177 43.8322 35.3226 43.8137C35.6275 43.7959 35.9328 43.7453 36.2333 43.6706C36.4756 43.6087 36.7164 43.5337 36.9506 43.4392C36.9187 43.379 36.8879 43.318 36.8591 43.2564C36.7408 43.0021 36.6497 42.7371 36.584 42.468C36.3275 42.6659 36.0409 42.8302 35.7349 42.9463C35.4236 43.0647 35.0929 43.1328 34.7616 43.1523C34.4299 43.1725 34.0979 43.1452 33.7757 43.0822C33.4531 43.0192 33.1397 42.9213 32.8382 42.798C32.7277 42.7528 32.619 42.7039 32.5116 42.6522C32.555 42.7029 32.599 42.7529 32.6451 42.8008Z" fill="black"/>
    <path d="M47.8613 39.9943C47.7606 40.0802 47.6682 40.1757 47.5862 40.2798C47.5038 40.3835 47.433 40.4968 47.3734 40.6149C47.2545 40.8518 47.1847 41.113 47.1681 41.3763C47.1511 41.6398 47.1888 41.9048 47.2735 42.1516C47.3585 42.3981 47.494 42.6244 47.6644 42.8157C48.0053 43.2005 48.4931 43.4326 48.9895 43.461C49.2375 43.4768 49.4872 43.4446 49.7209 43.3669C49.8382 43.3282 49.951 43.2775 50.0584 43.2173C50.1658 43.157 50.2674 43.0862 50.3616 43.0057C50.5507 42.8465 50.7082 42.6504 50.8248 42.431C50.9413 42.2115 51.0158 41.9692 51.0436 41.7196C51.0711 41.4704 51.0534 41.214 50.985 40.9696C50.9179 40.7255 50.8024 40.492 50.6459 40.2897C50.4887 40.086 50.2922 39.9125 50.0665 39.7848C49.8412 39.6578 49.5892 39.5742 49.3296 39.5451C49.0701 39.5157 48.8035 39.5397 48.5517 39.6167C48.4261 39.6554 48.3037 39.706 48.1879 39.7697C48.0717 39.8337 47.9626 39.909 47.8613 39.9943C48.0625 39.8224 48.2973 39.6906 48.5484 39.6075C48.7994 39.5243 49.0667 39.4904 49.3323 39.5075C49.5976 39.5246 49.8619 39.5924 50.1038 39.7112C50.346 39.8286 50.5676 39.996 50.7492 40.2007C50.9318 40.4061 51.0755 40.6481 51.1663 40.9121C51.2564 41.176 51.296 41.4591 51.2774 41.7405C51.2594 42.0215 51.1842 42.3002 51.0572 42.5535C50.9305 42.8072 50.7509 43.0335 50.5358 43.2159C50.4277 43.3066 50.3111 43.3871 50.1878 43.4552C50.0641 43.523 49.9337 43.5774 49.7995 43.6188C49.5309 43.701 49.2463 43.727 48.9691 43.6962C48.692 43.6654 48.4227 43.5767 48.1814 43.4415C47.9402 43.3053 47.7288 43.1201 47.5611 42.9034C47.3927 42.687 47.2687 42.4378 47.1959 42.1763C47.122 41.9147 47.102 41.6402 47.1312 41.3732C47.1606 41.1062 47.2399 40.8456 47.3649 40.6105C47.4893 40.3753 47.6587 40.1648 47.8613 39.9943Z" fill="black"/>
    <path d="M45.2613 37.214C45.2613 37.214 46.3489 38.6186 47.4476 37.316L51.1026 37.4406L52.1566 39.1851C52.1566 39.1851 48.3447 36.0131 45.9565 40.2162C45.9565 40.2162 45.4074 37.6786 42.268 37.554C42.268 37.554 40.6611 37.5351 39.8097 38.2472C39.7223 38.4645 39.6366 38.6826 39.5529 38.9017C39.5061 39.0253 39.4577 39.1492 39.4163 39.27C39.3743 39.3929 39.3357 39.5189 39.2957 39.6459C39.2158 39.8992 39.1311 40.1594 39.0023 40.4042L38.9776 40.4497L38.9525 40.4952C38.9339 40.5271 38.9132 40.5579 38.8909 40.5873C38.8458 40.6465 38.7919 40.6996 38.732 40.7434C38.6117 40.8321 38.4701 40.879 38.3322 40.8985C38.1936 40.9183 38.0567 40.9142 37.9229 40.9009C37.7891 40.8872 37.6583 40.8636 37.5286 40.8365C37.3991 40.8098 37.2711 40.779 37.143 40.7506C37.0149 40.7222 36.8865 40.6945 36.7558 40.6808C36.8875 40.678 37.0197 40.691 37.1505 40.7061L37.5418 40.7544C37.6719 40.7694 37.8016 40.7814 37.93 40.7842C38.0584 40.7869 38.1862 40.7804 38.3068 40.7537C38.4271 40.7277 38.5392 40.6801 38.6276 40.6058C38.672 40.5688 38.7106 40.5257 38.7432 40.4778C38.7594 40.4538 38.774 40.4285 38.7875 40.4025L38.8082 40.3597L38.8285 40.3165C38.9346 40.0851 39.004 39.8345 39.0728 39.5795C39.1074 39.4518 39.1416 39.3224 39.1809 39.193C39.2002 39.1287 39.2222 39.0619 39.2436 38.9996L39.3083 38.8106C39.3957 38.559 39.4868 38.3088 39.582 38.0599C39.6295 37.936 39.6789 37.81 39.7284 37.6878L39.7657 37.5957L39.7687 37.5882L39.769 37.5875L39.7701 37.5848L39.7721 37.5789L39.7802 37.556L39.7961 37.5091C39.8178 37.4465 39.8402 37.3821 39.8649 37.3171C39.9151 37.188 39.973 37.0555 40.0638 36.9299C40.1092 36.8676 40.1641 36.807 40.2325 36.7563C40.2667 36.731 40.3037 36.7088 40.3443 36.6903L40.3613 36.6827L40.3731 36.6779L40.385 36.6735L40.3921 36.6711L40.406 36.6666C40.4246 36.6608 40.4433 36.6554 40.4619 36.6506C40.6106 36.6132 40.7539 36.6085 40.8918 36.6105C41.0297 36.6132 41.1632 36.6249 41.293 36.6345L41.3892 36.641L41.4373 36.6437L41.4837 36.6451L41.6819 36.6526L42.0766 36.6718C42.3392 36.6855 42.6004 36.6999 42.8606 36.7081L43.6473 36.7245C43.9102 36.731 44.1734 36.7389 44.4367 36.7498C44.5678 36.7553 44.7013 36.7611 44.8294 36.769C44.951 36.7721 45.0865 36.7574 45.2251 36.7656C45.2684 36.7683 45.3125 36.7731 45.3575 36.783C45.4023 36.793 45.449 36.8087 45.4931 36.8371L45.4883 36.8344C45.5181 36.8505 45.5402 36.8731 45.5568 36.8946C45.5734 36.9165 45.5856 36.9378 45.5964 36.958C45.6177 36.9977 45.6364 37.0343 45.6564 37.0525L45.6611 37.0569L45.6614 37.0572C45.7194 37.124 45.7892 37.1812 45.8671 37.2274C45.9759 37.2921 46.0985 37.3362 46.2249 37.365C46.3512 37.3938 46.4824 37.4078 46.6138 37.4112C46.483 37.4239 46.3499 37.4252 46.2174 37.4095C46.0853 37.3934 45.9528 37.3605 45.8288 37.301C45.7421 37.2596 45.6604 37.2044 45.5893 37.136C45.5415 37.0976 45.5198 37.0535 45.4961 37.0189C45.4738 36.9833 45.4504 36.9559 45.4314 36.9491L45.4321 36.9494L45.4267 36.9467C45.3738 36.9179 45.2972 36.9111 45.2213 36.9121C45.1597 36.9128 45.0963 36.9186 45.0316 36.9251C44.9666 36.9313 44.9012 36.9395 44.8297 36.9419L44.434 36.946L43.6469 36.9593L43.2529 36.9665C43.1215 36.9686 42.991 36.9717 42.8569 36.9713C42.5916 36.9713 42.3277 36.9634 42.0651 36.9549L41.6721 36.9429L41.4763 36.9381L41.4244 36.9371L41.3739 36.935L41.2733 36.9292C41.1408 36.9207 41.0124 36.9107 40.8874 36.909C40.7631 36.9073 40.6411 36.9138 40.5347 36.9409C40.5215 36.9439 40.5086 36.948 40.4958 36.9521L40.4863 36.9552L40.4815 36.9566L40.471 36.961L40.4656 36.9634C40.4463 36.9723 40.4263 36.9836 40.4077 36.9977C40.3697 37.0254 40.3342 37.0634 40.3016 37.1076C40.2362 37.1966 40.1841 37.3078 40.1377 37.4252C40.119 37.4721 40.1014 37.5201 40.0838 37.569C40.3697 37.3287 40.82 37.1346 41.5291 37.1346C43.3891 37.1346 45.2613 37.214 45.2613 37.214Z" fill="black"/>
    <path d="M52.6333 37.6946H53.3471V39.2347L52.6333 37.6946Z" fill="black"/>
    <path d="M42.9067 41.0853C42.8274 41.1654 42.6993 41.1654 42.62 41.0853C42.5408 41.0052 42.5408 40.8755 42.62 40.7957L43.3136 40.095C43.3928 40.0149 43.5212 40.0149 43.6002 40.095C43.6791 40.1751 43.6791 40.3045 43.6002 40.3846L42.9067 41.0853Z" fill="black"/>
    <path d="M49.8117 41.1538C49.7423 41.224 49.6298 41.224 49.5604 41.1538C49.4909 41.0836 49.4909 40.9699 49.5604 40.8998L50.1685 40.2853C50.238 40.2151 50.3504 40.2151 50.4199 40.2853C50.4893 40.3555 50.4893 40.4691 50.4199 40.5393L49.8117 41.1538Z" fill="black"/>
    <path d="M49.7233 41.5513C49.7233 41.452 49.8029 41.3716 49.9012 41.3716H50.7614C50.8597 41.3716 50.9393 41.452 50.9393 41.5513C50.9393 41.6506 50.8597 41.731 50.7614 41.731H49.9012C49.8029 41.731 49.7233 41.6506 49.7233 41.5513Z" fill="black"/>
    <path d="M53.0015 40.2409C52.764 39.8794 52.535 39.5134 52.3107 39.1447C51.9336 38.5224 51.5718 37.8915 51.2228 37.2537H51.1795C50.324 37.2534 49.4689 37.2325 48.6137 37.1877C48.1862 37.1644 47.7586 37.1356 47.3307 37.0976L47.2277 37.088C47.2155 37.1281 47.2003 37.1671 47.1816 37.2041C47.143 37.2815 47.0912 37.3499 47.0322 37.4071C46.9462 37.491 46.8455 37.5512 46.7422 37.5943C46.6385 37.6371 46.5311 37.6649 46.4234 37.6751C46.523 37.6327 46.6148 37.5776 46.6975 37.5146C46.7798 37.4513 46.852 37.378 46.9045 37.2972C46.9767 37.1863 47.0072 37.0634 46.999 36.9412L46.9916 36.8303L47.1278 36.8176L47.3307 36.7984C47.7583 36.7604 48.1858 36.7317 48.6137 36.7084C49.4689 36.6636 50.3243 36.6427 51.1795 36.6423L51.4004 36.6427L51.581 36.643L51.6657 36.8022C52.0363 37.4975 52.391 38.2016 52.7285 38.915C52.9124 39.306 53.0917 39.6993 53.2624 40.0971C53.3312 40.258 53.3993 40.4192 53.4654 40.5815L53.5304 40.7414L53.381 40.7277L53.2573 40.7164C53.0432 40.6969 52.8288 40.6725 52.6143 40.6438C52.8125 40.6092 53.0107 40.5787 53.2092 40.5524C53.1398 40.4493 53.0703 40.3453 53.0015 40.2409Z" fill="black"/>
    <path d="M13.7834 42.671C13.7834 42.8179 13.6655 42.937 13.5202 42.937H12.2463C12.1009 42.937 11.983 42.8179 11.983 42.671C11.983 42.5242 12.1009 42.405 12.2463 42.405H13.5202C13.6655 42.405 13.7834 42.5242 13.7834 42.671Z" fill="black"/>
    <path d="M49.167 40.9891C49.0688 40.9891 48.9891 40.9087 48.9891 40.8094V39.9402C48.9891 39.8409 49.0688 39.7605 49.167 39.7605C49.2653 39.7605 49.3449 39.8409 49.3449 39.9402V40.8094C49.3449 40.909 49.2653 40.9891 49.167 40.9891Z" fill="black"/>
    <path d="M15.431 42.671C15.431 42.5242 15.5489 42.405 15.6942 42.405H16.9681C17.1135 42.405 17.2314 42.5242 17.2314 42.671C17.2314 42.8179 17.1135 42.937 16.9681 42.937H15.6942C15.5489 42.937 15.431 42.8179 15.431 42.671Z" fill="black"/>
    <path d="M15.5621 42.0823C15.4591 42.1863 15.2924 42.1863 15.1898 42.0823C15.0871 41.9786 15.0871 41.8098 15.1898 41.7061L16.0906 40.7958C16.1936 40.6918 16.3603 40.6918 16.463 40.7958C16.5656 40.8995 16.5656 41.0683 16.463 41.172L15.5621 42.0823Z" fill="black"/>
    <path d="M14.6074 41.8384C14.462 41.8384 14.3441 41.7193 14.3441 41.5724V40.2853C14.3441 40.1384 14.462 40.0193 14.6074 40.0193C14.7527 40.0193 14.8706 40.1384 14.8706 40.2853V41.5724C14.8706 41.7196 14.7527 41.8384 14.6074 41.8384Z" fill="black"/>
    <path d="M15.4429 37.3174C15.4429 37.3174 18.6367 37.0696 20.1413 40.6298H21.6205C22.0654 39.5313 23.795 39.2149 23.795 39.2149C21.9031 40.638 22.8853 42.2346 23.1888 42.6437H20.0532C19.9543 41.8981 19.2486 37.9055 15.4429 37.3174Z" fill="black"/>
    <path d="M22.9351 41.264C22.9527 41.4979 23.013 41.7248 23.1113 41.9302C23.2099 42.1356 23.3457 42.3198 23.5097 42.4704C23.6733 42.621 23.8641 42.7388 24.0677 42.8151C24.271 42.8921 24.4902 42.9278 24.7019 42.9212C24.9201 42.9151 25.1298 42.8675 25.3253 42.7809C25.5201 42.6946 25.6973 42.57 25.8447 42.4167C25.9921 42.2636 26.1096 42.0822 26.1889 41.8854C26.2682 41.6896 26.3089 41.4746 26.3089 41.2658L26.3082 41.2219L26.3068 41.1839C26.3055 41.1579 26.3038 41.1309 26.3011 41.1045C26.296 41.0518 26.2885 40.9991 26.2784 40.9471C26.2584 40.843 26.2282 40.741 26.1886 40.6424C26.1093 40.4455 25.9917 40.2641 25.8444 40.1111C25.697 39.9581 25.5198 39.8335 25.3253 39.7472C25.1305 39.6606 24.9188 39.613 24.7036 39.6068C24.4885 39.6003 24.2717 39.6359 24.068 39.713C23.8641 39.7896 23.6737 39.9071 23.51 40.0577C23.3464 40.208 23.2102 40.3921 23.1116 40.5975C23.0134 40.8029 22.9531 41.0299 22.9351 41.264C22.9171 41.0302 22.9476 40.7889 23.0272 40.5623C23.1058 40.3353 23.2326 40.1231 23.3962 39.943C23.5602 39.7626 23.7618 39.6147 23.9857 39.5124C24.2097 39.4097 24.456 39.3532 24.704 39.347C24.952 39.3409 25.203 39.385 25.4365 39.4781C25.5269 39.5141 25.615 39.5579 25.699 39.6079L25.7119 37.8035L33.713 37.8617L35.3978 38.6072L35.4761 38.609L35.472 38.7822L35.4632 39.1444C35.448 39.7113 35.4293 40.2785 35.4056 40.8454C35.6773 40.858 35.9494 40.8711 36.2215 40.8868C36.5223 40.9036 36.8232 40.9231 37.1244 40.9464C36.8235 40.9696 36.5227 40.9892 36.2215 41.0059C35.9206 41.023 35.6198 41.0378 35.3189 41.0515L35.2969 41.0525L35.1966 41.0569L35.1918 40.9464C35.1658 40.3456 35.1461 39.7451 35.1302 39.1444L35.1258 38.9629C34.0989 38.9859 33.0716 38.9968 32.0447 38.9972C30.841 38.9975 29.6376 38.9828 28.4338 38.9513C27.9205 38.9372 27.4076 38.9205 26.8943 38.8993L26.8923 38.9434C26.8787 39.2474 26.8642 39.5514 26.8469 39.8557C26.8303 40.1597 26.8106 40.4637 26.7876 40.7677C26.7645 40.4637 26.7446 40.1597 26.7283 39.8557C26.711 39.5517 26.6968 39.2474 26.6832 38.9434L26.6761 38.7822L26.6714 38.6743L26.7876 38.6696C27.3361 38.6459 27.8846 38.6281 28.4335 38.6131C29.6369 38.5816 30.8406 38.5669 32.0444 38.5672C32.9212 38.5675 33.7977 38.5758 34.6745 38.5922L33.6544 38.1407L25.987 38.0852L25.9748 39.8071C26.0056 39.8338 26.0361 39.8612 26.0649 39.8899C26.2452 40.0676 26.3902 40.2823 26.4881 40.5181C26.5372 40.6359 26.5745 40.7588 26.5996 40.8841C26.6121 40.9467 26.6212 41.01 26.6277 41.0737C26.6307 41.1055 26.6331 41.137 26.6348 41.1692L26.6365 41.2189L26.6372 41.263C26.6372 41.5222 26.5867 41.7751 26.4884 42.0117C26.3905 42.2472 26.2452 42.4618 26.0649 42.6395C25.885 42.8172 25.6699 42.9582 25.4368 43.051C25.2044 43.1441 24.951 43.1879 24.7063 43.1821C24.4549 43.1759 24.211 43.1195 23.9867 43.0168C23.7628 42.9144 23.5612 42.7665 23.3972 42.5861C23.2336 42.4057 23.1069 42.1938 23.0283 41.9668C22.948 41.7389 22.9175 41.4979 22.9351 41.264Z" fill="black"/>
    <path d="M14.6074 42.0149C14.9668 42.0149 15.2585 42.3096 15.2585 42.6728C15.2585 43.0364 14.9668 43.3308 14.6074 43.3308C14.2476 43.3308 13.9559 43.0361 13.9559 42.6728C13.9559 42.3093 14.2476 42.0149 14.6074 42.0149Z" fill="black"/>
    <path d="M13.6523 43.2594C13.7553 43.1557 13.922 43.1557 14.0246 43.2594C14.1276 43.3635 14.1276 43.5319 14.0246 43.6357L13.1238 44.5459C13.0211 44.65 12.8544 44.65 12.7514 44.5459C12.6484 44.4418 12.6484 44.2734 12.7514 44.1697L13.6523 43.2594Z" fill="black"/>
    <path d="M15.5621 43.2597L16.463 44.1699C16.5656 44.274 16.5656 44.4424 16.463 44.5462C16.3603 44.6502 16.1936 44.6502 16.0906 44.5462L15.1898 43.6359C15.0871 43.5322 15.0871 43.3634 15.1898 43.2597C15.2928 43.1556 15.4594 43.1556 15.5621 43.2597Z" fill="black"/>
    <path d="M14.6074 43.5037C14.7527 43.5037 14.8706 43.6228 14.8706 43.7696V45.0568C14.8706 45.2037 14.7527 45.3228 14.6074 45.3228C14.462 45.3228 14.3441 45.2037 14.3441 45.0568V43.7696C14.3441 43.6228 14.462 43.5037 14.6074 43.5037Z" fill="black"/>
    <path d="M42.8057 41.5387C42.8057 41.4254 42.8965 41.334 43.0083 41.334H43.9891C44.1013 41.334 44.1917 41.4257 44.1917 41.5387C44.1917 41.652 44.1009 41.7438 43.9888 41.7438H43.008C42.8965 41.7438 42.8057 41.652 42.8057 41.5387Z" fill="black"/>
    <path d="M42.1715 41.0332C42.4486 41.0332 42.6729 41.2598 42.6729 41.5398C42.6729 41.8199 42.4486 42.0465 42.1715 42.0465C41.8943 42.0465 41.67 41.8199 41.67 41.5398C41.6697 41.2602 41.8943 41.0332 42.1715 41.0332Z" fill="black"/>
    <path d="M42.1715 42.1797C42.2833 42.1797 42.3741 42.2714 42.3741 42.3844V43.3754C42.3741 43.4887 42.2833 43.5805 42.1715 43.5805C42.0597 43.5805 41.9689 43.4887 41.9689 43.3754V42.3844C41.9685 42.2714 42.0593 42.1797 42.1715 42.1797Z" fill="black"/>
    <path d="M41.4359 41.9917C41.5152 41.9116 41.6436 41.9116 41.7226 41.9917C41.8018 42.0718 41.8018 42.2016 41.7226 42.2813L41.029 42.9821C40.9498 43.0622 40.8217 43.0622 40.7424 42.9821C40.6631 42.902 40.6631 42.7726 40.7424 42.6925L41.4359 41.9917Z" fill="black"/>
    <path d="M24.6318 40.7258C24.8933 40.7258 25.1054 40.9401 25.1054 41.2044C25.1054 41.4687 24.8933 41.683 24.6318 41.683C24.3702 41.683 24.1581 41.4687 24.1581 41.2044C24.1578 40.9401 24.3702 40.7258 24.6318 40.7258Z" fill="black"/>
    <path d="M42.9067 41.992L43.6002 42.6927C43.6795 42.7728 43.6795 42.9022 43.6002 42.9823C43.5209 43.0624 43.3928 43.0624 43.3136 42.9823L42.62 42.2816C42.5408 42.2015 42.5408 42.0721 42.62 41.992C42.699 41.9122 42.8274 41.9122 42.9067 41.992Z" fill="black"/>
    <path d="M40.6821 39.7628C40.5672 39.8607 40.4619 39.9699 40.3684 40.0884C40.2745 40.2068 40.1939 40.3359 40.1258 40.4708C39.9903 40.7412 39.9106 41.0387 39.8917 41.3392C39.8723 41.6398 39.9154 41.9421 40.0116 42.2231C40.1088 42.5042 40.263 42.7623 40.4578 42.9803C40.8464 43.4192 41.4027 43.6838 41.9688 43.7163C42.2517 43.7342 42.5363 43.6979 42.803 43.6089C42.9365 43.565 43.0652 43.5072 43.1879 43.4384C43.3105 43.3699 43.4264 43.2888 43.5334 43.197C43.7489 43.0153 43.9288 42.7917 44.0616 42.5418C44.1944 42.2916 44.2795 42.015 44.311 41.7305C44.3425 41.4464 44.3222 41.154 44.2439 40.8754C44.1673 40.5967 44.0355 40.3307 43.857 40.1C43.6778 39.8676 43.4535 39.6697 43.1967 39.5239C42.9395 39.3791 42.6525 39.2839 42.3561 39.2507C42.06 39.2172 41.7561 39.2445 41.4691 39.3325C41.3258 39.3767 41.1862 39.4345 41.0544 39.5071C40.9223 39.5797 40.7976 39.6656 40.6821 39.7628C40.9118 39.567 41.1794 39.4167 41.4657 39.3219C41.752 39.2271 42.0569 39.1881 42.3598 39.2079C42.6624 39.2274 42.9636 39.3048 43.2397 39.4404C43.5162 39.5742 43.7689 39.7652 43.9756 39.9984C44.1836 40.2325 44.3479 40.5088 44.4512 40.8097C44.5539 41.1106 44.5993 41.4334 44.578 41.7545C44.5573 42.0749 44.4719 42.3929 44.3269 42.6815C44.1826 42.9708 43.9776 43.2289 43.7323 43.437C43.6093 43.5407 43.4762 43.6325 43.3356 43.7098C43.1946 43.7872 43.0456 43.8495 42.8928 43.8964C42.5861 43.9902 42.2619 44.02 41.9458 43.9847C41.6297 43.9498 41.3228 43.8488 41.0476 43.6944C40.7725 43.5394 40.5317 43.3278 40.3402 43.0806C40.1485 42.8338 40.0069 42.5497 39.9238 42.2515C39.8395 41.9534 39.8168 41.6405 39.8503 41.3358C39.8839 41.0311 39.9747 40.7343 40.117 40.466C40.2582 40.1972 40.451 39.9573 40.6821 39.7628Z" fill="black"/>
    <path d="M41.5369 41.5387C41.5369 41.652 41.4461 41.7438 41.3343 41.7438H40.3535C40.2417 41.7438 40.1509 41.652 40.1509 41.5387C40.1509 41.4254 40.2417 41.3336 40.3535 41.334H41.3343C41.4461 41.334 41.5369 41.4257 41.5369 41.5387Z" fill="black"/>
    <path d="M41.7229 41.0853C41.6436 41.1654 41.5152 41.1654 41.4363 41.0853L40.7427 40.3846C40.6635 40.3045 40.6635 40.1751 40.7427 40.095C40.8217 40.0149 40.9501 40.0149 41.0294 40.095L41.7229 40.7957C41.8018 40.8758 41.8018 41.0056 41.7229 41.0853Z" fill="black"/>
    <path d="M52.1873 1.38306H52.1911V1.74592H52.1873V1.38306Z" fill="black"/>
    <path d="M53.5443 42.7942H53.8353V41.8676H53.6043V37.6785H53.8353H54.3137H55.0232V37.7145H55.0272V38.8595H55.0232V39.1676C55.114 39.1714 55.2048 39.1755 55.2956 39.1796L55.304 39.0078C55.3162 38.7791 55.3294 38.5504 55.345 38.3217C55.3599 38.0931 55.3779 37.8644 55.3986 37.6357C55.4192 37.8644 55.4372 38.0931 55.4521 38.3217C55.4677 38.5504 55.4805 38.7791 55.4931 39.0078L55.5073 39.2939L55.5124 39.3984L55.3986 39.4038C55.2735 39.41 55.1482 39.4155 55.0232 39.4206V40.8005C55.2458 40.8022 55.4687 40.8046 55.6913 40.8081C55.6977 40.4548 55.7058 40.1015 55.7167 39.7482C55.7313 39.2909 55.7492 38.8335 55.7733 38.3762C55.7855 38.1475 55.7987 37.9188 55.8139 37.6902C55.8231 37.5474 55.8339 37.4047 55.8454 37.2619H52.16L51.645 36.3585H46.9574C46.9574 36.3585 46.4153 37.3441 45.5212 36.468L40.2644 36.1668L39.5329 37.0702L22.0013 36.8775V37.2927H24.6846C24.8883 37.2927 25.0536 37.4598 25.0536 37.6655C25.0536 37.8712 24.8886 38.0383 24.6846 38.0383H22.0013V38.2714H24.6846C24.8883 38.2714 25.0536 38.4385 25.0536 38.6442C25.0536 38.8503 24.8886 39.017 24.6846 39.017H22.0013V39.8632H20.9988V36.8669L19.6169 36.8518L19.7795 35.0724L49.145 35.9323V35.9775H49.3276C49.2846 35.6653 49.1558 34.2809 49.9158 32.3567C50.7824 30.1617 50.6997 29.0642 50.6997 29.0642H51.3011V28.6904H50.4724C50.5337 30.7618 49.4628 31.643 49.4628 31.643L49.4743 29.3696H49.145V35.8156L46.7249 35.7735C46.8151 35.5746 47.0651 35.2268 47.6024 35.147L47.6092 34.6089L27.8036 34.044L27.7806 34.36L31.7717 34.4767L31.7351 35.2754L27.1558 35.0625L27.7826 22.6962L49.1457 25.4749V26.4707H49.4895L49.4939 25.5677L51.3018 25.5543V21.6522H50.7766V20.7717H51.3018V20.0439H50.7766V19.1634H51.3018V17.1862C51.3018 17.0129 51.3784 16.8637 51.4881 16.7963V14.592L51.5061 14.4736H51.3147C51.1815 14.4736 51.0734 14.3281 51.0734 14.1484C51.0734 13.9686 51.1815 13.8231 51.3147 13.8231H51.6057L52.1911 9.99251V1.74587H52.2392V1.383H52.1911V1.04204C52.6272 0.402234 53.259 0 53.9617 0C54.8961 0 55.7045 0.711012 56.0951 1.74587H56.0961V1.74895C56.0972 1.75134 56.0982 1.75408 56.0992 1.75648H56.0961V2.57464C56.3187 2.86801 56.6196 3.03781 56.853 3.31851C56.9706 3.45989 57.0665 3.63174 57.1142 3.83611C57.1735 4.0908 57.1623 4.36911 57.1129 4.62483C57.0024 5.19515 56.7006 5.659 56.5949 6.23137C56.5467 6.49188 56.5623 6.75239 56.6331 7.00195C56.7023 7.245 56.808 7.4658 56.9042 7.69037C57.0004 7.91562 57.0871 8.14908 57.1241 8.40617C57.1623 8.6725 57.1217 8.94807 57.0539 9.19968C56.9228 9.68613 56.666 10.0959 56.5993 10.6149C56.5579 10.9356 56.6098 11.2615 56.6457 11.5785C56.684 11.9178 56.709 12.2632 56.6423 12.5993C56.5854 12.8859 56.4526 13.1419 56.3089 13.3624C56.2395 13.4692 56.1642 13.5691 56.0846 13.6626L56.109 13.8225H56.7494C56.8825 13.8225 56.9906 13.9679 56.9906 14.1477C56.9906 14.3274 56.8825 14.4729 56.7494 14.4729H56.2083L56.2246 14.58L56.2262 14.5913V16.8055C56.3279 16.8767 56.3977 17.0201 56.3977 17.1855V19.1628H56.9581V20.0432H56.3977V20.771H56.9581V21.6515H56.3977V29.0622H56.9415C56.9415 29.0622 56.8588 30.1597 57.7254 32.3547C58.485 34.2792 58.357 35.6636 58.3136 35.9754H59V37.2605H58.5098V43.2355H58.155V44.6572H58.6016C58.7096 44.6572 58.7974 44.7458 58.7974 44.855C58.7974 44.9642 58.7096 45.0529 58.6016 45.0529H56.2401C56.1321 45.0529 56.0443 44.9642 56.0443 44.855C56.0443 44.7458 56.1321 44.6572 56.2401 44.6572H56.6867V43.2355H56.3319V37.2605H55.8895C55.901 37.4033 55.9118 37.546 55.921 37.6888C55.9366 37.9175 55.9494 38.1461 55.9616 38.3748C55.9857 38.8322 56.0037 39.2895 56.0182 39.7468C56.0311 40.1614 56.0406 40.576 56.0474 40.9905L56.0504 41.1692L55.8678 41.1723C55.5863 41.1771 55.305 41.1802 55.0235 41.1822V41.8669H54.7924V42.7936H55.0835C55.1539 42.7936 55.2112 42.8511 55.2112 42.9223C55.2112 42.9935 55.1539 43.0513 55.0835 43.0513H53.5446C53.4742 43.0513 53.4169 42.9935 53.4169 42.9226C53.4166 42.8521 53.4738 42.7942 53.5443 42.7942ZM27.9381 32.1831L31.8719 32.2982L31.8625 32.5029L27.9236 32.3875L27.9009 32.7038L31.8479 32.8192L31.8377 33.0424L27.8846 32.9267L27.8619 33.2426L31.8232 33.3584L31.8113 33.6189L27.8433 33.5028L27.8202 33.8188L47.6126 34.3833L47.6373 32.4098L27.9608 31.8665L27.9381 32.1831ZM32.2101 24.932L32.1613 25.9908L28.3796 25.8799L28.3579 26.1959L32.147 26.3068L32.1369 26.53L28.3427 26.4191L28.321 26.735L32.1223 26.8463L32.1105 27.1068L28.3034 26.9955L28.2813 27.3115L32.0959 27.4231L32.0857 27.6463L28.2661 27.5347L28.2441 27.8507L32.0712 27.9626L32.0617 28.1673L28.2298 28.0554L28.2078 28.3713L32.0471 28.4836L32.0369 28.7068L28.1922 28.5945L28.1702 28.9108L32.0224 29.0235L32.0105 29.284L28.1519 29.171L28.1296 29.487L31.9956 29.5999L31.9854 29.8231L28.114 29.7098L28.0916 30.0258L31.9709 30.1391L31.9624 30.3253L28.0784 30.2117L28.056 30.5277L31.9478 30.6416L31.9377 30.8648L28.0405 30.7508L28.0178 31.0672L31.9231 31.1812L31.9112 31.4417L27.9995 31.3273L27.9771 31.6433L38.61 31.937L36.6341 25.4794L32.2101 24.932ZM37.7051 25.6129L39.6491 31.9665L45.6384 32.1318L43.8018 26.3684L37.7051 25.6129ZM44.8622 26.4995L46.666 32.1599L47.64 32.1866L47.7071 26.8518L44.8622 26.4995ZM49.1457 27.1253V28.9239H49.4773L49.4865 27.1253H49.1457ZM52.1911 11.1201L51.7781 13.8235H52.1911V11.1201ZM52.2267 14.4736H51.6785L51.6568 14.6153V16.7613C51.8147 16.7863 51.937 16.9671 51.937 17.1865V19.1638H52.2267V14.4736ZM52.2267 20.0439H51.937V20.3417H52.2267V20.0439ZM52.2267 20.5694H51.937V20.772H52.2267V20.5694ZM52.2267 21.6522H51.937V29.0628H52.2267V21.6522ZM55.4345 29.0628H55.7624V21.6522H55.4345V29.0628ZM55.4345 20.7717H55.7624V20.569H55.4345V20.7717ZM55.4345 20.3417H55.7624V20.0439H55.4345V20.3417ZM55.3447 13.6523C55.5236 13.3446 55.6604 12.9957 55.7506 12.6199C55.7509 12.6182 55.7512 12.6164 55.7519 12.6147L55.3447 9.94972V13.6523ZM55.4683 13.8235H55.6499C55.6923 13.7862 55.734 13.7475 55.7746 13.7074C55.817 13.6657 55.8583 13.6222 55.8986 13.577L55.82 13.0622C55.7282 13.3353 55.6103 13.5921 55.4683 13.8235ZM54.454 22.6456C54.4418 22.6606 54.432 22.6764 54.4238 22.6925H54.6017C54.6556 22.6925 54.6993 22.7514 54.6993 22.8243C54.6993 22.8972 54.6556 22.9561 54.6017 22.9561H54.416C54.5031 23.2423 54.804 23.5582 54.5973 23.7383C54.3103 23.9885 54.6562 24.8765 54.4201 25.0018C54.2399 25.0973 54.3642 25.5639 54.332 25.7998L54.9053 25.5718V22.1386H54.5062C54.5597 22.2974 54.5776 22.4895 54.454 22.6456ZM54.9053 17.6589V17.0215L54.2273 16.7517V17.9283L54.9053 17.6589ZM54.2277 18.1676V18.2576L54.9056 18.5274V17.8982L54.2277 18.1676ZM54.9053 16.7822V16.153L54.2273 16.4228V16.5128L54.9053 16.7822ZM54.9053 15.9134V15.4752L54.2273 15.2055V16.1828L54.9053 15.9134ZM54.9053 15.2359V14.6067L54.2273 14.8765V14.9665L54.9053 15.2359ZM54.6234 14.4794C54.6207 14.4777 54.618 14.4756 54.6152 14.4736H54.2277V14.6369L54.6234 14.4794ZM54.5888 13.2973C54.7243 13.2973 54.8341 13.4349 54.8341 13.6047C54.8341 13.6236 54.8328 13.6417 54.83 13.6595L55.0161 13.7335V13.0163L54.3947 13.2634C54.391 13.2754 54.3862 13.2867 54.3808 13.2973H54.5888ZM54.9053 34.6308V34.0016L54.4641 34.1769V34.4552L54.9053 34.6308ZM54.4645 34.6948V35.4835L54.9056 35.3082V34.8701L54.4645 34.6948ZM54.9053 33.7623V33.2016L54.4641 33.026V33.9376L54.9053 33.7623ZM54.9053 32.9619V32.3327L54.4641 32.508V32.7863L54.9053 32.9619ZM54.9053 35.9761V35.5475L54.4641 35.7228V35.8967C54.4641 35.9234 54.4625 35.9498 54.4594 35.9758H54.9053V35.9761ZM54.1806 31.4235C54.352 31.5403 54.4645 31.7378 54.4645 31.9623V32.2691L54.9056 32.0938V31.6556L54.1809 31.3674V31.4235H54.1806ZM54.1806 31.1274L54.9053 31.4156V30.7865L54.1806 31.0747V31.1274ZM54.1806 30.8354L54.9053 30.5472V30.109L54.1806 29.8207V30.8354ZM54.1806 29.5811L54.9053 29.8694V29.2402L54.1806 29.5284V29.5811ZM54.1806 29.2895L54.9053 29.0012V28.563L54.1806 28.2748V29.2895ZM54.1806 28.0352L54.9053 28.3234V27.6942L54.1806 27.9825V28.0352ZM54.1806 27.7432L54.9053 27.4546V26.6796L54.1806 26.3913V27.7432ZM54.1806 26.152L54.9053 26.4403V25.8111L54.4181 26.0048C54.4184 26.0093 54.4184 26.0137 54.4184 26.0185C54.4184 26.086 54.3876 26.1404 54.3496 26.1404H54.1806V26.152ZM52.6234 35.9761H53.1838C53.1808 35.9501 53.1787 35.9237 53.1787 35.897V35.7296L52.6234 35.5088V35.9761ZM52.6234 35.2696L53.1787 35.4904V34.6883L52.6234 34.9091V35.2696ZM52.6234 34.6698L53.1787 34.449V34.1837L52.6234 33.9629V34.6698ZM52.6234 33.7233L53.1787 33.9441V33.0194L52.6234 33.2402V33.7233ZM52.6234 33.001L53.1787 32.7802V32.5149L52.6234 32.2937V33.001ZM52.6234 32.0544L53.1787 32.2752V31.962C53.1787 31.7727 53.259 31.6026 53.3868 31.4838V31.3903L52.6234 31.694V32.0544ZM52.6234 31.455L53.3868 31.1514V31.0514L52.6234 30.7478V31.455ZM52.6234 30.5081L53.3868 30.8118V29.8444L52.6234 30.148V30.5081ZM52.6234 29.9087L53.3868 29.6051V29.5051L52.6234 29.2015V29.9087ZM52.6234 28.9619L53.3868 29.2655V28.2981L52.6234 28.6017V28.9619ZM52.6234 28.3624L53.3868 28.0588V27.9588L52.6234 27.6552V28.3624ZM52.6234 27.4159L53.3868 27.7195V26.4153L52.6234 26.7189V27.4159ZM52.6234 26.4793L53.3868 26.1757V26.1404H53.1506C53.1127 26.1404 53.0818 26.086 53.0818 26.0185C53.0818 25.9963 53.0852 25.9757 53.091 25.9579L52.6234 25.7721V26.4793ZM52.6234 25.5328L53.1648 25.7481C53.153 25.5013 53.2492 25.0908 53.0812 25.0018C52.8447 24.8765 53.1909 23.9889 52.904 23.7383C52.6973 23.5579 52.9982 23.2419 53.0852 22.9561H52.8989C52.845 22.9561 52.801 22.8972 52.801 22.8243C52.801 22.7514 52.8447 22.6925 52.8989 22.6925H53.0774C53.0693 22.6764 53.0591 22.661 53.0469 22.6456C52.9229 22.4895 52.9412 22.2974 52.9944 22.1386H52.6231V25.5328H52.6234ZM52.6234 18.5664L53.3973 18.2587V18.1669L52.6234 17.8592V18.5664ZM52.6234 17.6199L53.3973 17.9276V16.7531L52.6234 17.0609V17.6199ZM52.6234 16.8209L53.3973 16.5131V16.4214L52.6234 16.1137V16.8209ZM52.6234 15.8744L53.3973 16.1821V15.2065L52.6234 15.5142V15.8744ZM52.6234 15.275L53.3973 14.9672V14.8755L52.6234 14.5677V15.275ZM53.3973 14.6358V14.4732H52.989L53.3973 14.6358ZM52.5198 13.7701L52.8735 13.6294C52.8731 13.6215 52.8728 13.6133 52.8728 13.6051C52.8728 13.4353 52.9826 13.2977 53.1181 13.2977H53.3176L52.5198 12.9803V13.7701ZM52.5198 12.1012L53.3973 11.7521V11.6603L52.5198 11.3112V12.1012ZM52.5198 11.0719L53.3973 11.421V10.4454L52.5198 10.7946V11.0719ZM52.5198 10.555L53.3973 10.2058V10.114L52.5198 9.76486V10.555ZM52.5198 9.52558L53.3973 9.87475V8.89912L52.5198 9.24829V9.52558ZM52.5198 9.00867L53.3973 8.65949V8.56775L52.6278 8.26171L52.5198 8.96998V9.00867ZM53.1178 7.01187H53.3258C53.322 7.00469 53.319 6.99715 53.316 6.98962L52.8504 6.80442L52.7647 7.36516L52.8725 7.32236C52.8725 7.32134 52.8725 7.32031 52.8725 7.31963C52.8728 7.14949 52.9826 7.01187 53.1178 7.01187ZM53.3444 6.76129C53.3593 6.74144 53.3769 6.72535 53.3973 6.71405V6.15914H52.9494L52.8853 6.57849L53.3444 6.76129ZM53.2611 7.97347C53.152 7.97347 53.0635 7.86256 53.0635 7.72597C53.0635 7.68934 53.07 7.65476 53.0812 7.62327C53.027 7.613 52.9785 7.58082 52.9419 7.53392L52.7254 7.61985L52.6617 8.03612L53.3966 8.32846V7.97347H53.2611ZM52.5198 7.84304L52.5428 7.69276L52.5198 7.702V7.84304ZM52.5198 7.46238L52.5818 7.43773L52.6885 6.73973L52.5201 6.67263V7.46238H52.5198ZM52.5198 6.43334L52.7227 6.51413L52.8491 5.6881L52.5198 5.81921V6.43334ZM52.3365 1.383H52.2846V1.74587H52.3365V1.383ZM52.4334 1.383H52.3815V1.74587H52.4334V1.383ZM52.5306 1.383H52.4788V1.74587H52.5306V1.383ZM52.5198 4.78949V5.57924L52.888 5.43272L52.9595 4.96442L52.5198 4.78949ZM52.6278 1.383H52.576V1.74587H52.6278V1.383ZM52.7251 1.383H52.6732V1.74587H52.7251V1.383ZM52.9941 4.73883L53.009 4.64058H52.7471L52.9941 4.73883ZM52.822 1.383H52.7701V1.74587H52.822V1.383ZM52.9192 1.383H52.8674V1.74587H52.9192V1.383ZM53.0165 1.383H52.9646V1.74587H53.0165V1.383ZM52.9877 5.90787H53.3973V5.49331H53.338L53.0324 5.61484L52.9877 5.90787ZM53.1133 1.383H53.0615V1.74587H53.1133V1.383ZM53.0893 5.24205H53.3678L53.3973 5.23041V5.13866L53.1218 5.02912L53.0893 5.24205ZM53.3973 4.89938V4.68371H53.1747L53.1564 4.80353L53.3973 4.89938ZM53.2106 1.383H53.1587V1.74587H53.2106V1.383ZM53.3075 1.383H53.2556V1.74587H53.3075V1.383ZM53.4047 1.383H53.3529V1.74587H53.4047V1.383ZM53.3973 12.8961V11.9917L52.5198 12.3409V12.7411L53.3332 13.0646C53.3522 13.0327 53.3786 13.0081 53.4088 12.9944C53.4013 12.9625 53.3973 12.9297 53.3973 12.8961ZM53.3973 18.6003V18.498L52.763 18.7502H53.4247C53.4071 18.7037 53.3973 18.6534 53.3973 18.6003ZM53.502 1.383H53.4501V1.74587H53.502V1.383ZM53.5992 1.383H53.5474V1.74587H53.5992V1.383ZM53.6961 1.383H53.6442V1.74587H53.6961V1.383ZM53.7933 1.383H53.7415V1.74587H53.7933V1.383ZM53.8906 1.383H53.8387V1.74587H53.8906V1.383ZM53.9875 1.383H53.9356V1.74587H53.9875V1.383ZM54.0847 1.383H54.0329V1.74587H54.0847V1.383ZM54.1819 1.383H54.1301V1.74587H54.1819V1.383ZM54.8643 18.7502L54.2277 18.4969V18.6C54.2277 18.653 54.2178 18.7034 54.2002 18.7499H54.8643V18.7502ZM54.2432 12.982C54.2873 12.982 54.3269 13.004 54.3564 13.0392L55.0161 12.7767V12.3042L54.2273 11.9907V12.8961C54.2273 12.9256 54.2243 12.9543 54.2185 12.982H54.2432ZM54.8324 7.35317L54.9551 7.40213L54.8588 6.77156L54.4008 6.95368C54.3964 6.97456 54.3896 6.99407 54.3805 7.01187H54.5885C54.724 7.01187 54.8338 7.14949 54.8338 7.31928C54.8341 7.33058 54.8334 7.34222 54.8324 7.35317ZM54.8246 6.54563L54.7657 6.15914H54.2277V6.69625H54.2432C54.2802 6.69625 54.3141 6.71165 54.3415 6.73767L54.8246 6.54563ZM54.8324 5.47004L55.0161 5.54329V4.82612L54.7501 4.9319L54.8324 5.47004ZM54.8714 5.72507L54.9869 6.48127L55.0161 6.46963V5.78292L54.8714 5.72507ZM54.9944 7.65716L54.744 7.55754C54.7108 7.59178 54.6701 7.61505 54.6254 7.62361C54.6369 7.65511 54.6434 7.68968 54.6434 7.72631C54.6434 7.86324 54.5549 7.97381 54.4458 7.97381H54.2781C54.2914 7.99949 54.2991 8.02995 54.2991 8.06282C54.2991 8.12683 54.27 8.18195 54.2277 8.20933V8.32983L55.0164 8.01626V7.80059L54.9944 7.65716ZM54.2277 8.56878V8.65881L55.0164 8.97238V8.2552L54.2277 8.56878ZM54.2277 8.89809V9.87544L55.0164 9.56186V9.21201L54.2277 8.89809ZM54.2277 10.1151V10.2051L55.0164 10.5187V9.80149L54.2277 10.1151ZM54.2277 10.4444V11.4217L55.0164 11.1082V10.758L54.2277 10.4444ZM54.2277 11.6614V11.7514L55.0164 12.065V11.3478L54.2277 11.6614ZM54.2277 4.90006L54.5532 4.77066L54.54 4.68371H54.2277V4.90006ZM54.2788 1.383H54.227V1.74587H54.2788V1.383ZM54.3761 1.383H54.3242V1.74587H54.3761V1.383ZM54.4733 1.383H54.4215V1.74587H54.4733V1.383ZM54.5702 1.383H54.5184V1.74587H54.5702V1.383ZM54.2277 5.13969V5.22972L54.2592 5.24239H54.6254L54.5878 4.9966L54.2277 5.13969ZM54.6674 1.383H54.6156V1.74587H54.6674V1.383ZM54.289 5.49331H54.2273V5.90787H54.7267L54.6878 5.65181L54.289 5.49331ZM54.7647 1.383H54.7128V1.74587H54.7647V1.383ZM54.8619 1.383H54.8101V1.74587H54.8619V1.383ZM54.7057 4.64058L54.7159 4.70596L54.8802 4.64058H54.7057ZM54.9588 1.383H54.907V1.74587H54.9588V1.383ZM55.056 1.383H55.0042V1.74587H55.056V1.383ZM55.1533 1.383H55.1014V1.74587H55.1533V1.383ZM55.2502 1.383H55.1983V1.74587H55.2502V1.383ZM55.3474 1.383H55.2956V1.74587H55.3474V1.383ZM55.4446 1.383H55.3928V1.74587H55.4446V1.383ZM55.5415 1.383H55.4897V1.74587H55.5415V1.383ZM55.6388 1.383H55.5869V1.74587H55.6388V1.383ZM55.736 1.383H55.6842V1.74587H55.736V1.383ZM55.8329 1.383H55.7811V1.74587H55.8329V1.383ZM55.3447 4.64058V8.82244L55.8451 12.0978C55.8576 11.9996 55.8675 11.9006 55.8749 11.8017C55.8966 11.5131 55.8847 11.2228 55.9034 10.9339C55.9193 10.6888 55.9596 10.4502 56.0206 10.2184C56.0917 9.94698 56.19 9.69161 56.2699 9.42493C56.3089 9.29588 56.3401 9.16305 56.3584 9.02578C56.378 8.88098 56.3757 8.73754 56.3706 8.59137C56.3611 8.31819 56.294 8.06213 56.2107 7.81531C56.1297 7.57569 56.0379 7.3429 55.9806 7.09061C55.9183 6.81641 55.8939 6.52166 55.9186 6.2365C55.943 5.9558 56.0253 5.69255 56.1253 5.44676C56.2151 5.2263 56.3214 5.02364 56.3923 4.78949C56.4444 4.61696 56.4841 4.42697 56.4888 4.24245C56.4929 4.07779 56.4719 3.92888 56.4122 3.79161C56.398 3.75875 56.3916 3.74745 56.3696 3.71185C56.3604 3.69713 56.3502 3.68275 56.3401 3.66906C56.3364 3.66392 56.3326 3.65913 56.3286 3.65434C56.3289 3.65536 56.3184 3.64235 56.3174 3.64133C56.2957 3.61668 56.272 3.59443 56.2479 3.57423C56.2472 3.57389 56.2351 3.5643 56.234 3.56328C56.2269 3.5578 56.2195 3.55301 56.212 3.54787C56.1944 3.53589 56.1761 3.52494 56.1578 3.51467C56.1385 3.50405 56.1205 3.4955 56.0958 3.48557V4.64092H55.3447V4.64058ZM56.2351 13.1101C56.2981 13.0009 56.3536 12.8841 56.4014 12.7619C56.4597 12.6127 56.4871 12.4384 56.4997 12.2721C56.5251 11.9318 56.4651 11.5857 56.4295 11.2506C56.397 10.9452 56.3916 10.647 56.4563 10.3482C56.564 9.84908 56.8256 9.44102 56.9221 8.93541C56.9713 8.679 56.9669 8.43116 56.8998 8.1816C56.8344 7.93718 56.7294 7.71536 56.6331 7.49182C56.5359 7.26657 56.4471 7.03515 56.4051 6.77875C56.3601 6.50352 56.395 6.21802 56.4654 5.95648C56.6135 5.40842 56.9164 4.93087 56.9672 4.33728C56.9869 4.10963 56.9655 3.87719 56.8815 3.67624C56.8127 3.51193 56.7019 3.39109 56.5833 3.27778C56.4217 3.12373 56.2513 2.99091 56.0961 2.8283V3.31372C56.2672 3.37329 56.4251 3.48283 56.5356 3.67453C56.7073 3.97201 56.6897 4.37014 56.6084 4.7111C56.5556 4.93293 56.4742 5.1414 56.3821 5.33756C56.2699 5.5765 56.1734 5.82879 56.1229 6.10471C56.0711 6.38713 56.0853 6.674 56.13 6.95642C56.1703 7.21042 56.2588 7.44423 56.3408 7.67701C56.4265 7.92075 56.5047 8.17065 56.5369 8.43869C56.5711 8.72248 56.5606 9.02065 56.4986 9.29622C56.4353 9.57795 56.3282 9.83949 56.2462 10.1116C56.1781 10.3383 56.1249 10.571 56.0972 10.8131C56.065 11.0938 56.0751 11.3755 56.064 11.6579C56.0528 11.9393 56.0223 12.219 55.9694 12.4918C55.9579 12.5511 55.9454 12.6096 55.9318 12.6678L56.0436 13.3993C56.1121 13.309 56.1761 13.2124 56.2351 13.1101ZM56.0575 16.7593V14.6153L56.0358 14.4736H55.4345V19.1634H55.7624V17.1862C55.7624 16.9599 55.8925 16.775 56.0575 16.7593Z" fill="black"/>
</svg>
